<svg xmlns="http://www.w3.org/2000/svg" viewBox="0 0 1345 775"><path fill="#fff" fill-rule="evenodd" d="M 218.1 149.0 C 183.9 153.7, 144.6 181.7, 129.2 212.5 C 123.1 224.5, 121.5 231.9, 121.5 247.9 L 121.5 262.4 124.2 263.9 C 126.3 265.1, 127.3 265.2, 128.7 264.3 C 130.2 263.4, 130.4 261.9, 130.1 253.3 C 129.2 224.6, 143.3 199.3, 171.5 178.9 C 191.9 164.2, 224.0 153.8, 236.4 157.9 C 248.2 161.8, 253.9 174.6, 250.5 189.4 C 244.7 214.4, 220.4 240.6, 187.9 257.0 C 179.1 261.4, 177.5 263.0, 178.4 266.4 C 178.9 268.6, 179.5 269, 183.2 268.9 C 192.3 268.9, 226.4 265.1, 251 261.4 C 273.9 257.8, 272 258.6, 272 252.8 C 272 249.9, 271.6 248.1, 271.0 248.4 C 270.3 248.9, 210.5 258, 208.3 258 C 208.1 258, 208 257.4, 208 256.6 C 208 255.9, 211.2 253.1, 215.2 250.4 C 225.1 243.7, 242.4 226.2, 248.8 216.5 C 251.6 212.1, 255.4 204.9, 257.2 200.5 C 260.1 193.2, 260.4 191.4, 260.4 181.5 C 260.4 171.4, 260.2 170.0, 257.7 164.8 C 256.1 161.6, 253.4 157.8, 251.5 156.1 C 244.6 150.1, 231.2 147.2, 218.1 149.0 M 287 166.6 C 273.2 170.2, 266.8 180.8, 274.7 187.0 C 280.0 191.1, 298.1 188.2, 302.5 182.5 C 303.6 181.0, 306.1 177.9, 308.2 175.5 C 312.1 171.1, 312.8 168.2, 310.8 166.2 C 309.1 164.5, 293.8 164.7, 287 166.6 M 285.5 175.5 C 281.4 176.9, 278.6 179.6, 279.5 181.1 C 280.6 182.8, 289.5 182.0, 294.0 179.7 C 300.4 176.5, 300.5 173.9, 294.3 174.0 C 291.6 174.0, 287.7 174.7, 285.5 175.5 M 351.5 192.6 C 340.6 195.7, 338.8 195.9, 332.6 195.1 C 326.0 194.3, 325.8 194.3, 323.9 197.0 C 322.7 198.8, 320.7 200.0, 318.2 200.4 C 316.1 200.8, 308.2 204.7, 300.6 209.0 C 293.0 213.4, 286.1 217, 285.4 217 C 284.6 217, 283.3 215.7, 282.5 214.1 C 280.5 210.1, 278.4 208.7, 275.9 209.5 C 273.9 210.1, 273.8 210.7, 274.1 217.5 C 274.5 225.6, 276.4 229, 280.6 229 C 281.9 229, 288.8 225.8, 296 222 C 303.1 218.1, 309.6 215, 310.3 215 C 311.1 215, 312.2 216.3, 312.8 217.9 C 315.1 224.6, 324.1 222.1, 329.0 213.6 C 330.5 210.7, 332.2 207.9, 332.6 207.2 C 333.1 206.5, 341.1 204.5, 350.5 202.8 C 368.3 199.5, 371 198.3, 371 194.0 C 371 188.0, 368.3 187.8, 351.5 192.6 M 199.7 202.1 C 198.8 202.6, 195.1 206.7, 191.6 211.2 C 177.5 229.4, 166.4 249.0, 161.1 265.2 C 156.8 278.4, 156.5 280.6, 158.4 283.5 C 161.2 287.7, 166 286.1, 166 280.9 C 166 269.9, 185.4 233.5, 202.7 212.2 C 205.4 209.0, 206.0 207.4, 205.5 205.5 C 204.8 202.4, 202.0 200.8, 199.7 202.1 M 1074.5 21.1 C 1054.7 26.5, 1038.0 31.6, 1037.4 32.4 C 1036.9 33.1, 1035.4 41.1, 1034.1 50.1 C 1032.9 59.1, 1029.7 82.4, 1027.0 102 C 1024.3 121.5, 1020.2 150.7, 1018.0 167 C 1015.7 183.2, 1011.7 212.4, 1009 232 C 1006.2 251.5, 1002.8 276.3, 1001.3 287.2 C 999.7 299.1, 998.2 306.9, 997.5 306.9 C 996.9 306.9, 988.8 295.8, 979.5 282.2 C 970.1 268.7, 958.1 251.3, 952.7 243.5 C 947.3 235.8, 943 228.7, 943 227.8 C 943 226.9, 944.8 224.6, 947.1 222.8 C 958.5 213.8, 970.4 193.7, 973.5 178.0 C 975.9 166.3, 975.1 143.1, 972.0 130.6 C 964.8 102.0, 950.3 84.4, 927.3 76.2 C 919.9 73.6, 918.5 73.5, 903.5 73.5 C 885.6 73.6, 890.6 72.5, 834.5 87.9 C 787.2 100.9, 776.1 104.2, 775.6 105.4 C 775.4 106.0, 779.8 138.2, 785.5 177.0 C 791.2 215.7, 797.2 256.9, 798.9 268.5 C 800.6 280.0, 803.4 298.7, 805.0 310 C 806.6 321.2, 808.2 332.0, 808.5 333.8 C 809.9 342.4, 808.3 339.5, 768.7 265 C 761.0 250.4, 753.0 235.3, 750.9 231.5 C 741.4 213.6, 722.0 177.2, 710.0 154.5 C 702.7 140.7, 696.2 128.9, 695.6 128.2 C 694.6 127.2, 686.4 129.1, 656.0 137.4 C 635.0 143.2, 617.1 148.4, 616.4 149.0 C 615.7 149.6, 614.4 153.5, 613.4 157.7 C 604.7 197.7, 589.0 260.3, 574.3 314 C 568.4 335.1, 563.5 353.5, 563.2 354.7 C 562.5 358.0, 561.1 358.4, 560.1 355.8 C 559.6 354.5, 558.5 346.9, 557.5 339 C 554.9 317.5, 551.7 294.9, 545.0 251.4 C 538.2 207.1, 535.0 183.3, 534.9 178.0 C 534.9 171.1, 535.9 171.0, 502.8 179.9 C 486.1 184.5, 471.9 188.7, 471.3 189.3 C 470.7 189.9, 465.4 199.9, 459.4 211.5 C 453.5 223.0, 445.4 238.8, 441.5 246.5 C 437.5 254.2, 430.7 267.3, 426.4 275.7 C 422.1 284.1, 418.1 290.9, 417.5 290.9 C 416.9 290.9, 408.9 284.4, 399.6 276.4 C 390.3 268.5, 375.9 256.6, 367.6 250.1 C 359.3 243.5, 351.1 236.7, 349.5 235.0 C 346.4 231.7, 338.2 227, 335.6 227 C 334.9 227, 321.1 230.5, 305.1 234.9 C 272.2 243.9, 272.0 243.9, 272.0 252.3 C 272.0 255.4, 272.5 257.7, 273.3 258.3 C 274.2 259.0, 275.5 265.1, 276.9 274.5 C 278.7 286.7, 289.0 357.5, 291.8 376.5 L 292.5 381.5 304.0 381.1 C 310.3 380.9, 324.0 380.2, 334.5 379.6 L 353.5 378.5 353.4 374 C 353.3 370.1, 344.9 310.6, 343.3 302.7 C 342.9 300.7, 343.2 300, 344.2 300 C 345.0 300, 357.9 310.5, 373.0 323.4 C 400.1 346.6, 400.5 346.9, 405 346.9 C 410.9 346.9, 443.6 343.3, 444.9 342.5 C 445.4 342.2, 453.6 327.8, 463.0 310.7 C 472.5 293.5, 480.8 278.9, 481.4 278.1 C 482.8 276.7, 482.3 273.9, 491.0 332.9 C 493.8 351.9, 496.4 367.7, 496.7 368.1 C 497.1 368.4, 512.3 367.9, 530.5 366.8 C 548.6 365.8, 579.2 364.1, 598.3 363.0 C 617.5 361.9, 633.6 360.7, 634.0 360.3 C 634.5 359.8, 636.5 351.6, 638.5 341.9 C 641.0 329.8, 642.6 324.0, 643.8 322.9 C 645.8 321.3, 697.4 315.5, 710.2 315.5 L 716.9 315.5 725.6 333.5 C 730.3 343.4, 734.6 351.9, 735.0 352.4 C 735.8 353.2, 743.6 352.9, 796 349.9 C 825.9 348.2, 847.3 347.0, 861.2 346.4 C 868.8 346.0, 875.6 345.2, 876.5 344.6 C 877.9 343.5, 877.9 342.4, 876.4 332.9 C 871.9 302.6, 866 261.6, 866 260.3 C 866 259.5, 867.1 257.8, 868.4 256.4 C 871.8 253.0, 876.8 253.1, 880.1 256.7 C 881.5 258.2, 894.0 277.0, 907.9 298.5 C 921.8 319.9, 933.8 338.1, 934.6 338.9 C 935.7 340.2, 940.1 340.1, 968.7 338.6 C 1037.1 335.0, 1067.1 333.2, 1067.8 332.5 C 1068.1 332.1, 1069.2 320.3, 1070.3 306.2 C 1071.3 292.0, 1072.6 279.9, 1073.1 279.3 C 1073.6 278.7, 1076.8 277.9, 1080.2 277.6 C 1083.7 277.2, 1099.7 275.6, 1115.8 273.9 C 1132.5 272.1, 1145.6 271.2, 1146.1 271.7 C 1146.5 272.1, 1151.8 284.2, 1157.8 298.5 L 1168.6 324.5 1172.5 324.8 C 1174.7 325.0, 1190.9 324.4, 1208.5 323.4 C 1248.1 321.3, 1246.4 322.1, 1240.5 308.4 C 1238.7 304.0, 1220.8 261.5, 1200.9 214 C 1181.0 166.4, 1160.8 118.0, 1155.9 106.5 C 1151.1 94.9, 1140.1 68.8, 1131.6 48.5 C 1116.6 12.5, 1116.0 11.4, 1113.3 11.3 C 1111.7 11.2, 1094.3 15.6, 1074.5 21.1 M 1087.6 116.7 C 1087.4 117.1, 1086.9 120.6, 1086.5 124.5 C 1085.5 134.4, 1082.3 161.3, 1079.3 183.3 C 1078.0 193.7, 1077.2 202.6, 1077.6 203.0 C 1078.1 203.5, 1082.7 203.2, 1088.0 202.4 C 1093.2 201.6, 1102.6 200.3, 1108.9 199.6 C 1117.9 198.7, 1120.5 198.0, 1120.7 196.8 C 1120.9 196.0, 1117.2 186.1, 1112.6 174.8 C 1108.0 163.5, 1100.8 145.6, 1096.8 135.1 C 1089.9 117.2, 1088.7 114.8, 1087.6 116.7 M 864.5 143.1 C 856.3 144.6, 849.4 146.1, 849.2 146.4 C 848.7 146.9, 857.2 193.7, 858.0 195.1 C 858.7 196.1, 888.8 191.1, 894.1 189.1 C 902.0 186.1, 908 177.2, 908 168.5 C 908 155.2, 903.8 147.1, 894.8 142.6 C 888.1 139.2, 883.9 139.3, 864.5 143.1 M 662.6 207.7 C 662.3 208.2, 660.2 217.5, 658.0 228.5 C 655.7 239.5, 653.0 252.7, 651.9 257.9 C 650.8 263.0, 650.3 267.7, 650.7 268.1 C 651.7 269.1, 690.8 263.5, 692.2 262.1 C 693.8 260.5, 666.3 207, 664.0 207 C 663.5 207, 662.8 207.3, 662.6 207.7 M 801.7 368.7 C 749.0 371.4, 732.8 372.6, 731.4 374.0 C 729.1 376.4, 709.8 454.6, 699.0 505.5 C 695.8 520.8, 687.8 562.3, 686.0 573.5 C 684.3 583.5, 683.9 584.0, 679.3 580 C 653.3 557.2, 619 525.4, 619 524.0 C 619 523.0, 621.3 520.7, 624.4 518.6 C 655.4 498.0, 664.7 459.3, 646.3 427.9 C 632.4 404.1, 600.1 387.8, 559.2 384.0 C 548.2 382.9, 530.8 383.5, 466.5 387.0 C 456.6 387.5, 443.7 388.2, 438 388.5 C 432.2 388.8, 423.7 389.3, 419.1 389.6 L 410.8 390.1 411.4 393.8 C 411.8 395.8, 415.6 413.7, 420.0 433.5 C 424.3 453.3, 432.4 490.2, 438.0 515.5 C 443.5 540.8, 451.2 575.6, 455.0 593 C 458.8 610.3, 464.3 635.6, 467.3 649.3 C 470.3 663.0, 473.2 674.6, 473.8 675.2 C 474.5 675.9, 476.3 675.7, 479.6 674.7 C 522.8 660.8, 547.7 652.5, 548.6 651.6 C 549.5 650.7, 547.6 640.8, 540.9 610.5 C 536.1 588.5, 531.6 568.4, 531.1 566.0 C 530.4 563.0, 530.5 561.0, 531.1 560.3 C 532.4 558.7, 542.3 556.5, 544.3 557.2 C 545.1 557.6, 561.0 574.1, 579.6 594.0 C 612.8 629.6, 613.4 630.1, 616.7 629.6 C 618.5 629.3, 630.9 625.5, 644.2 621.1 C 664.6 614.4, 695.0 604.5, 752 586.0 C 757.2 584.3, 762.0 582.6, 762.7 582.1 C 763.5 581.6, 765.1 573.8, 766.8 561.6 C 768.3 550.8, 770.0 541.5, 770.5 541.0 C 771.0 540.6, 780.9 537.6, 792.5 534.5 C 804.0 531.4, 822.8 526.3, 834.1 523.2 C 851.7 518.5, 855.1 517.8, 856.4 518.9 C 857.3 519.7, 861.9 525.8, 866.5 532.6 C 871.9 540.3, 875.7 544.9, 876.7 544.9 C 877.7 544.9, 896.7 538.9, 919 531.6 C 955.3 519.7, 959.5 518.1, 959.5 516.2 C 959.5 514.8, 951.5 505.9, 935.8 489.8 C 894.6 447.3, 864.6 413.6, 831.5 372.7 L 827.7 368 818.1 368.1 C 812.8 368.3, 805.4 368.5, 801.7 368.7 M 354 392.5 C 342.1 393.2, 323.5 394.3, 312.5 394.9 C 301.5 395.5, 285.0 396.4, 276 397.0 C 266.9 397.5, 250.0 398.4, 238.5 399.0 C 222.6 399.8, 217.2 400.4, 216.3 401.5 C 215.7 402.4, 215.0 411.1, 214.6 423.7 C 214.2 435.1, 213.5 454.6, 212.9 467 C 211.9 492.5, 210.4 529.8, 209 570 C 207.2 617.2, 206.9 622, 205.5 622 C 204.8 622, 203.3 620.0, 202.1 617.7 C 201.0 615.4, 196.4 605.8, 191.9 596.5 C 187.4 587.1, 181.1 574.1, 178.0 567.5 C 173.0 557.0, 137.2 482.6, 116.7 440 C 112.9 432.0, 107.8 421.3, 105.4 416.2 L 101.1 407 93.3 407.0 C 89.0 407.0, 79.4 407.4, 72 407.9 C 64.5 408.4, 47.8 409.4, 34.7 410.0 C 13.1 411.2, 11 411.4, 11 413.0 C 11 418.0, 142.7 681.0, 175.9 742.5 C 177.4 745.2, 181.0 752.1, 184.0 757.7 C 188.1 765.7, 189.7 768, 191.4 768 C 192.5 768, 200.9 765.5, 209.9 762.5 C 219.0 759.5, 237.7 753.4, 251.5 748.9 C 265.2 744.5, 276.8 740.5, 277.1 740.1 C 277.9 739.4, 278.6 730.7, 283 673 C 284.6 651.2, 286.4 627.6, 286.9 620.5 C 287.5 613.3, 289.3 589.2, 290.9 567 C 292.6 544.7, 294.4 521.1, 294.9 514.5 C 295.4 507.9, 297.3 483.3, 299.0 460 C 300.8 436.6, 302.4 417.3, 302.6 417.0 C 303.8 415.6, 305.4 422.3, 328.9 529.5 C 338.9 574.9, 360.1 671.6, 365.2 694.8 C 366.9 702.7, 368.9 709.4, 369.5 709.6 C 371.1 710.2, 442.0 687.3, 443.7 685.6 C 445.1 684.2, 445.8 687.3, 421.5 577 C 413.4 540.4, 405.5 504.4, 403.9 497 C 392.5 444.0, 381.0 393.7, 380.0 392.5 C 379.3 391.6, 378.0 391.0, 377.1 391.1 C 376.2 391.2, 365.8 391.8, 354 392.5 M 789.5 431.2 C 789.2 431.9, 787.4 439.4, 785.4 448 C 783.3 456.5, 780.4 468.6, 778.9 475 C 777.3 481.3, 776.4 486.8, 776.9 487.3 C 777.3 487.7, 786.7 486.2, 797.6 484.0 C 808.5 481.7, 819.1 479.5, 821.2 479.2 C 823.2 478.9, 825.4 478.1, 825.9 477.5 C 827.1 476.1, 793.4 430.0, 791.2 430.0 C 790.5 430.0, 789.7 430.5, 789.5 431.2 M 528 444.5 C 526.6 444.8, 521.6 445.5, 516.8 446.1 C 512.0 446.7, 507.6 447.6, 506.9 448.0 C 505.1 449.1, 515.7 497.9, 517.9 498.8 C 519.7 499.5, 540.3 496.6, 548.5 494.4 C 557.9 492.0, 567.6 487.0, 571.5 482.8 C 574.8 479.1, 575 478.6, 574.9 471.7 C 574.9 462.2, 573.6 457.6, 569.4 453.0 C 563.3 446.2, 558.4 444.6, 543.5 444.4 C 536.3 444.2, 529.3 444.3, 528 444.5 M 1064 371.0 C 1027.1 374.7, 996.4 395.4, 982.0 426.2 C 975.2 440.6, 973.2 452.0, 976.8 455.3 C 978.4 456.8, 981.6 457.0, 1006.0 456.7 L 1033.4 456.5 1036.0 448.7 C 1037.4 444.4, 1040.0 439.0, 1041.7 436.7 C 1051.3 423.2, 1076.2 419.6, 1084.7 430.4 C 1092.4 440.1, 1088.8 453.5, 1074.3 468.9 C 1067.7 476.0, 1041.4 498.5, 980.5 549.4 C 955.5 570.3, 956.4 569.3, 955.6 576.5 C 955.2 579.8, 954.1 588.8, 953.0 596.5 C 951.3 608.9, 951.2 610.7, 952.5 612.7 L 954.0 615.0 1040.7 614.7 L 1127.5 614.5 1130.6 592.5 C 1134.2 567.5, 1134.5 563.6, 1132.6 562.1 C 1131.7 561.3, 1118.7 560.9, 1090.9 560.7 C 1060.3 560.5, 1050.5 560.2, 1050.5 559.3 C 1050.5 558.6, 1058.3 551.7, 1068 543.9 C 1108.1 511.3, 1124.2 496.4, 1134.9 481.9 C 1145.5 467.7, 1151.1 454.6, 1152.9 439.6 C 1153.5 435.2, 1154.5 431.2, 1155.2 430.8 C 1157.1 429.5, 1252.7 429.7, 1253.5 431.0 C 1254.2 432.2, 1253.6 433.4, 1237.8 456.7 C 1129.2 617.6, 1134.5 609.3, 1138.5 613.4 C 1139.9 614.7, 1144.2 615, 1170.9 615 L 1201.7 615 1220.7 585.7 C 1231.2 569.6, 1248.2 543.4, 1258.6 527.5 C 1310.0 448.6, 1321.9 430.3, 1322.8 428 C 1324.0 425.1, 1329.7 393.7, 1330.6 385.4 C 1330.9 381.8, 1330.7 379.4, 1329.9 378.4 C 1328.9 377.2, 1317.2 377, 1244.4 377 C 1186.1 377, 1159.9 377.3, 1159.4 378.0 C 1159.1 378.6, 1157.9 385.5, 1156.9 393.3 C 1155.8 401.1, 1154.7 408.5, 1154.4 409.7 C 1153.8 412.5, 1151.3 412.7, 1150.5 410.0 C 1149.0 405.5, 1139.9 393.0, 1134.4 388.1 C 1119.2 374.5, 1092.6 368.1, 1064 371.0"/></svg>