<svg xmlns="http://www.w3.org/2000/svg" viewBox="0 0 452 1006"><path fill-rule="evenodd" d="M 262 1.4 C 262 2.1, 262.5 3.0, 263.2 3.3 C 263.9 3.6, 263.5 3.8, 262.3 3.9 C 261.1 3.9, 259.8 4.4, 259.5 5 C 259.1 5.5, 257.8 6, 256.5 6 C 253.7 6, 252.0 7.9, 254.6 8.1 C 255.6 8.1, 259.8 8.1, 264 8.0 C 273.4 7.8, 284.6 10.6, 293.9 15.5 C 298.6 18.0, 296.7 19.9, 289.6 19.9 C 286.7 20, 280.3 21.4, 276.2 23.1 C 266.6 26.9, 264 28.2, 264 29.1 C 264 29.6, 263.3 30, 262.5 30 C 261.6 30, 261 30.3, 261 30.8 C 261 31.3, 262.7 31.1, 264.9 30.4 C 277.6 26.0, 298.1 24.6, 311.1 27.3 C 318.5 28.9, 327.0 33.4, 327.7 36.1 C 328.0 37.3, 329.1 38.0, 330.8 38.0 C 332.3 38.0, 335.0 39.4, 336.9 41.0 C 341.0 44.5, 340.6 44.6, 330.3 42.0 C 312.8 37.6, 287.0 41.0, 280.9 48.6 C 279.6 50.2, 279.6 50.3, 281.5 49.6 C 298.2 43.1, 305.9 42.8, 318.6 48.1 C 330.0 52.8, 329.6 53.5, 315.6 53.5 C 304.9 53.5, 302.7 53.8, 297.5 56.0 L 291.5 58.5 303.1 59.0 C 309.5 59.4, 316.0 60.1, 317.6 60.7 C 319.2 61.2, 322.5 62.3, 325 63 C 342.0 67.6, 362.0 78, 354.0 78 C 352.9 78, 352 78.4, 352 79 C 352 80.2, 352.3 80.2, 355.4 78.8 C 358.2 77.5, 362.2 79.0, 367.5 83.4 C 370.7 86.2, 370.0 86.6, 364.9 84.8 C 356.3 81.8, 333.8 88.5, 323.8 97.1 C 320.1 100.3, 320.7 100.9, 324.8 98.1 C 331.7 93.4, 342.7 90.0, 351.7 90.0 C 354.6 90.0, 357 90.4, 357 91 C 357 91.5, 356.2 92, 355.2 92 C 351.5 92, 329.8 100.6, 324.6 104.1 C 321.6 106.2, 315 113.4, 315 114.6 C 315 115.0, 317.7 113.8, 323.7 110.7 C 326.5 109.2, 329.5 108, 330.2 108 C 331.0 108, 333.0 106.7, 334.8 105.1 C 338.3 102.0, 342.7 100.4, 351 99.5 C 355.4 99.0, 356.1 99.1, 354.5 100.1 C 352.7 101.2, 351.6 101.5, 342.7 103.8 C 337.9 105.0, 329.2 113.0, 331.4 114.2 C 332.3 114.7, 334.6 114.3, 337.3 113.0 C 350.5 107.0, 360.3 106.1, 370.2 109.9 C 376.9 112.5, 377.6 114, 371.9 114 C 362.7 114, 354.0 117.1, 337.6 126.3 C 330.2 130.4, 330.3 130.4, 319.5 127.6 C 308.4 124.7, 292.0 122.8, 260.7 120.8 C 232.9 119.1, 223.1 120.2, 205.5 127.1 C 195.1 131.2, 168.8 144.7, 160.9 149.9 C 157.6 152.1, 154.6 154, 154.3 154 C 150.9 154, 122.5 178.2, 119.7 183.4 C 118.7 185.3, 118.7 185.4, 121.6 183.5 C 123.1 182.5, 125.5 180.8, 126.7 179.6 C 127.9 178.5, 129.3 177.9, 129.7 178.3 C 130.1 178.7, 130.0 179.4, 129.4 179.8 C 128.9 180.1, 126.6 182.9, 124.4 186 C 122.2 189.0, 118.4 194.0, 116.1 197.0 C 113.8 200.1, 112 202.9, 112 203.3 C 112 203.7, 110.8 205.8, 109.4 208.0 C 105.1 214.9, 99.6 226.0, 100.3 226.6 C 101.1 227.4, 100.3 228.5, 108.6 216 C 118.3 201.4, 123.6 194.0, 132.0 183.3 C 137.9 175.8, 145.2 167.9, 145.7 168.4 C 145.9 168.6, 142.1 174.8, 137.2 182.1 C 132.4 189.4, 127.7 196.8, 127.0 198.5 C 126.2 200.1, 125.0 202.1, 124.3 203 C 122.0 205.9, 113.8 222.1, 114.2 223.1 C 114.4 223.7, 117.4 219.7, 120.9 214.3 C 124.4 208.9, 128.1 203.3, 129.1 202 C 130.1 200.6, 133.1 196.3, 135.7 192.5 C 138.3 188.7, 141.1 184.7, 142 183.5 C 143.6 181.1, 151.6 171.4, 153.7 169.1 C 155.9 166.8, 156.3 168.7, 154.2 171.6 C 153.2 173.2, 151.7 176.0, 150.9 178 C 150.2 179.9, 148.4 183.5, 147.0 186 C 143.2 192.6, 135.0 218.3, 136.3 219.6 C 136.6 219.9, 137.9 217.9, 139.1 215.1 C 140.3 212.3, 141.7 210, 142.1 210 C 142.5 210, 144.5 206.5, 146.5 202.2 C 156.5 181.0, 163.7 168.8, 171.1 160.2 C 175.0 155.7, 174.7 157.4, 170 166.2 C 167.8 170.3, 166 174.2, 166 174.7 C 166 175.3, 164.3 179.3, 162.3 183.6 C 160.2 187.9, 158.2 193.3, 157.8 195.5 C 157.4 197.7, 156.4 202.4, 155.5 206 C 152.8 217.5, 154.0 225.0, 157.0 215.7 C 157.8 213.4, 159.6 209.0, 161.0 206 C 162.5 202.9, 164.2 198.7, 164.9 196.5 C 167.6 188.2, 170.0 183, 171.0 183 C 171.4 183, 171.4 184.2, 170.9 185.7 C 170.5 187.2, 169.5 190.5, 168.9 193 C 168.3 195.4, 167.3 198.5, 166.8 199.7 C 166.4 201.0, 166.0 203.9, 166.0 206.2 L 166.1 210.5 168.1 206 C 171.1 199.5, 171.7 197.8, 172.5 195 C 172.9 193.6, 174.1 190.4, 175.2 188 C 176.3 185.5, 177.8 181.9, 178.6 180 C 185.1 164.5, 197.1 146, 200.6 146 C 202.4 146, 202.4 145.9, 199 153.5 C 197.3 157.1, 196 160.6, 196 161.3 C 196 162.0, 195.6 163.0, 195.1 163.5 C 193.7 165.1, 189.2 177.3, 188.1 182.5 C 187.5 185.2, 186.6 189.3, 185.9 191.5 C 185.3 193.7, 184.4 198.8, 183.9 203 C 183.4 207.1, 182.7 211.5, 182.4 212.8 C 182.1 214.3, 182.3 214.9, 182.9 214.5 C 183.5 214.1, 184 212.8, 184 211.5 C 184 210.1, 184.3 208.8, 184.8 208.5 C 185.3 208.2, 185.9 206.7, 186.2 205.2 C 187.4 198.1, 190.2 186.3, 190.9 185.5 C 191.3 184.9, 192.2 182.5, 192.9 180.2 C 195.1 173.3, 196.3 173.9, 195.6 181.6 C 194.3 195.1, 193.7 213.9, 194.5 215.7 C 195.1 216.9, 195.6 214.8, 196.1 209.5 C 197.3 195.9, 198.2 190, 199.1 190 C 199.6 190, 200 192.8, 200 196.3 C 200 203.8, 201.9 214.1, 203.1 213.4 C 203.6 213.1, 204 208.8, 204 203.9 C 204 196.2, 205.0 189.5, 207.5 182.5 C 211.4 170.9, 212.4 172.2, 211.6 188.1 C 210.9 202.2, 211.7 220, 213.1 220 C 213.6 220, 214.0 218.0, 214.0 215.7 C 214.0 212.1, 215.0 206.7, 217.6 196.2 C 218.7 192.1, 220 193.9, 220 199.5 C 220 203.7, 220.3 205, 221.5 205 C 222.3 205, 223 205.7, 223 206.6 C 223 211.0, 225.9 205.1, 226.9 198.6 C 227.5 194.7, 228.5 189.3, 229.0 186.6 C 229.5 184.0, 230 180.8, 230 179.5 C 230 178.3, 230.9 174.4, 232.0 170.9 C 233.1 167.3, 234.5 162.7, 235.1 160.5 C 235.8 158.3, 237.1 154.7, 238.0 152.5 C 239.0 150.3, 240.4 147.0, 241.1 145.2 C 242.7 141.4, 244.5 140.8, 243.6 144.4 C 242.2 149.9, 239.8 186.0, 240.4 193 C 241.9 211.1, 242.9 213.0, 244.8 201.2 C 245.5 196.9, 246.5 190.5, 247.0 187 C 247.6 183.4, 248.5 178.5, 249.0 176.2 C 249.5 173.8, 250 171.1, 250 170.0 C 250 167.5, 255.4 157.6, 257.0 157.1 C 258.3 156.7, 258.2 157.4, 256.0 167.5 C 252.2 184.7, 250.3 211.1, 253 209.5 C 253.5 209.1, 254 208.0, 254 206.9 C 254 205.8, 254.4 205, 255 205 C 255.5 205, 256 205.6, 256 206.5 C 256 210.9, 257.8 206.9, 258.9 200.2 C 262.3 177.6, 266.0 162.7, 271.5 149 C 275.0 140.2, 275.7 138.7, 278.4 135.6 C 282.3 131.0, 282.2 134.4, 278.3 142.7 C 276.2 146.9, 273.7 153.4, 272.7 157 C 271.7 160.5, 270.4 165.0, 269.8 167 C 267.3 175.7, 266.7 180.5, 266.3 195.8 C 265.8 213.1, 266.7 217.5, 268.9 208.8 C 269.6 206.0, 270.8 202.5, 271.6 201.1 L 272.9 198.5 272.9 202.4 C 273.0 207.9, 274.7 205.8, 276.0 198.9 C 276.5 195.9, 277.4 191.7, 277.9 189.5 C 278.4 187.3, 279.5 182.7, 280.3 179.3 C 282.7 168.6, 291.2 148.5, 293.6 147.5 C 295.0 147.0, 294.4 150.2, 291.9 155.5 C 290.3 158.9, 288.9 163.0, 282.9 181.5 C 281.7 185.3, 281.6 191.7, 282.8 190.4 C 284.1 188.9, 288 178.9, 288 177.0 C 288 174.8, 290.2 170.0, 291.3 170.0 C 291.8 170.0, 291.9 171.0, 291.5 172.2 C 291.1 173.4, 290.5 175.7, 290.2 177.2 C 290.0 178.7, 289.3 180.2, 288.8 180.5 C 288.3 180.8, 288 182.4, 288 184.0 C 288 187.5, 286.1 200.2, 284.9 204.9 C 283.9 209.0, 284.9 211.3, 286.2 207.9 C 287.6 204.3, 296 175.2, 296 174.0 C 296 173.5, 297.3 170.1, 299 166.5 C 300.6 162.8, 302 159.5, 302 158.9 C 302 158.4, 302.4 158, 303 158 C 304.7 158, 303.5 165.8, 299.0 183 C 296.9 190.9, 297.1 212.4, 299.2 206 C 300.9 200.9, 302.0 195.4, 303.1 187.5 C 303.7 182.5, 305.3 175.3, 306.7 171.5 C 308.0 167.6, 309.7 162.4, 310.6 159.9 C 311.4 157.4, 313.0 154.3, 314.1 152.9 L 316.1 150.5 315.6 153 C 315.4 154.3, 314.4 159.1, 313.6 163.5 C 311.5 173.9, 311.3 195.7, 313.4 198.5 C 314.9 200.6, 315.1 200.4, 316.4 195 C 317.4 190.3, 318.7 189.2, 320.4 191.5 C 321.8 193.3, 321.9 192.7, 321.9 184.3 C 321.9 176.9, 322.5 173.7, 324.8 167.3 C 331.4 148.8, 332.4 148.6, 333.3 165.2 C 334.1 181.4, 336.7 192, 339.7 192 C 340.7 192, 340.8 190.1, 340.3 184.1 L 339.7 176.2 342.6 174.4 C 344.2 173.4, 348.5 170.7, 352.3 168.2 C 365.8 159.5, 368.5 158.5, 370.9 161.4 C 371.9 162.6, 371.7 163.5, 369.5 166.0 C 365.0 171.5, 356.6 193.9, 358.4 195.7 C 359.1 196.5, 359.2 196.4, 362.3 189.5 C 363.8 186.2, 365.5 182.8, 366.0 182 C 366.5 181.1, 367.4 179.6, 367.9 178.5 C 368.4 177.4, 371.0 174.0, 373.8 171 C 378.5 165.7, 378.9 165.5, 380.5 167.2 C 382.2 168.8, 382.2 168.9, 380.1 170.7 L 378.0 172.5 379.9 179.3 C 382.4 188.4, 383 188.6, 383 180.3 C 383 171.2, 384.8 168.8, 389.8 171.7 C 393.4 173.7, 393.4 173.8, 391.5 178.6 C 389.4 183.4, 389.6 184.6, 391.9 182.5 C 393.7 180.9, 393.8 180.9, 394.9 182.8 C 396.6 186.1, 396.1 187.6, 393 188.8 C 391.3 189.4, 388.6 190.4, 387.0 191.0 C 385.4 191.6, 383.6 191.8, 383.0 191.5 C 382.4 191.1, 381.7 191.5, 381.3 192.4 C 381.0 193.2, 380.3 194, 379.9 194 C 378.2 194, 344.5 208.5, 336 212.9 C 328.2 216.9, 313.8 224.7, 306.6 228.8 C 301.8 231.7, 297.4 234, 297.0 234 C 296.5 234, 296.0 234.3, 295.8 234.8 C 295.6 235.2, 292.6 237.5, 289.0 239.9 C 273.8 250.2, 250.4 272.6, 241.5 285.5 C 239.6 288.2, 236.2 292.9, 234.0 296 C 227.7 304.6, 220 315.8, 220 316.3 C 220 316.5, 216.4 322.2, 212 328.8 C 207.6 335.5, 204 341.1, 204 341.4 C 204 341.6, 202.2 344.7, 200.1 348.1 C 196.7 353.7, 188.9 367.0, 178.5 385 C 168.8 401.6, 158 424.7, 158 428.7 C 158 430.2, 157.4 432.1, 156.8 432.8 C 156.1 433.4, 155.9 434, 156.3 434 C 157.2 434, 160 431.4, 160 430.6 C 160 430.3, 161.2 427.4, 162.6 424.2 C 165.6 417.8, 166.9 419.0, 165.0 426.5 C 163.7 431.9, 163.7 434, 165 434 C 165.5 434, 166 433.1, 166 432.0 C 166 431.0, 166.8 428.4, 167.9 426.3 C 168.9 424.2, 170.1 421.6, 170.5 420.5 C 171.0 419.0, 171.3 418.8, 171.7 419.8 C 172.2 421.1, 170.9 426.6, 168.9 431.7 C 168.1 433.6, 168.3 434, 170.2 433.9 C 172.2 433.9, 172.7 433.0, 174.3 425.9 C 175.4 421.5, 176.6 417.7, 177.1 417.4 C 177.6 417.1, 178 415.8, 178 414.5 C 178 413.1, 178.4 411.8, 178.9 411.5 C 179.4 411.1, 179.6 412.3, 179.3 414.2 C 179.1 416.0, 178.3 421.2, 177.6 425.7 C 176.4 433.5, 176.4 434, 178.1 434 C 179.2 434, 180 433.2, 180 432.2 C 180 431.2, 180.4 429.9, 180.9 429.4 C 181.9 428.4, 188.0 408.0, 187.9 405.8 C 187.9 403.9, 194.1 384.6, 195.1 383.5 C 197.0 381.4, 195.6 395.2, 191.9 416.0 C 190.0 426.6, 189.3 435.9, 190.6 434.6 C 192.1 433.2, 196.0 420.4, 196.0 417.0 C 196.0 415.1, 196.4 412.8, 197 412 C 197.7 410.7, 197.9 410.9, 197.9 412.8 C 198.0 416.1, 199.6 414.6, 200.2 410.7 C 202.3 397.3, 206 389.9, 206 399.0 C 206 402.2, 207.8 407, 209.1 407 C 209.6 407, 210 405.6, 210 404.0 C 210 402.4, 210.4 400.8, 211 400.5 C 211.5 400.1, 212 400.9, 212 402.3 C 212 403.6, 212.6 406.0, 213.4 407.5 C 214.7 410.0, 214.8 407.3, 214.6 383.8 C 214.5 359.2, 214.6 357.1, 216.5 353.2 C 219.3 347.2, 219.9 347.9, 220.0 357.2 C 220.0 366.3, 223.1 380.5, 225.5 382.9 C 226.9 384.3, 227.0 383.1, 226.5 372 C 226.0 362.1, 226.2 360.0, 227.0 362 C 229.6 367.6, 230.1 368.5, 231.5 370.4 C 232.6 371.9, 233.2 372.1, 233.8 371.2 C 234.3 370.4, 236.0 372.0, 238.9 376.0 C 244.8 384.0, 245.6 383.3, 240.6 374.5 C 239.0 371.7, 234.9 363.2, 232.9 358.5 C 229.0 349.4, 226.3 334.8, 227.8 330.8 C 228.7 328.6, 228.8 328.5, 229.5 330.5 C 229.8 331.6, 230.9 334.0, 231.8 336 L 233.5 339.5 233.8 335.2 C 233.9 332.9, 233.6 330.1, 233.0 329.1 C 231.7 326.7, 231.6 320.1, 232.8 321.5 C 233.3 322.0, 234.3 324.1, 234.9 326.2 C 238.1 336.2, 250.5 355, 253.8 355 C 254.4 355, 253.7 352.5, 252.4 349.4 C 251.1 346.4, 250 343.3, 250 342.5 C 250 341.8, 249.1 339.4, 248.0 337.3 C 240.7 322.5, 241.4 318.5, 248.9 332.5 C 253.6 341.2, 257.6 345.2, 254.9 338.3 C 254.2 336.7, 253.3 334.6, 252.9 333.5 C 250.8 328.3, 249.6 323.9, 250.1 323.4 C 250.5 323.1, 253.6 324.9, 257.2 327.4 C 260.8 329.9, 264.2 332, 264.9 332 C 265.5 332, 268.1 334.0, 270.6 336.5 C 276.0 341.9, 277.0 341.7, 274.1 335.5 C 272.9 333.0, 272 330.8, 272 330.5 C 272 330.2, 270.7 327.9, 269.1 325.2 C 267.5 322.5, 265.7 318.6, 264.9 316.4 C 264.2 314.2, 262.8 311.0, 261.8 309.2 C 258.2 302.7, 259.7 302.4, 267.9 307.9 C 275.2 312.9, 275.5 313.4, 273.4 316.6 C 271.8 319.2, 271.8 319.2, 273.6 318.5 C 277.8 316.8, 279.2 316.8, 282.9 318.4 C 288.0 320.7, 289.7 320.1, 287.2 316.9 C 286.1 315.6, 285.4 313.9, 285.7 313.2 C 286.2 311.6, 291.2 311.6, 292.8 313.2 C 293.7 314.1, 294 314.1, 294 313.2 C 294 312.5, 293.5 312, 293 312 C 292.4 312, 292 311.2, 292 310.2 C 292 308.5, 300.6 302, 302.9 302 C 303.5 302, 304.0 301.6, 304.0 301.2 C 304.0 300.8, 305.0 300.0, 306.2 299.3 C 307.4 298.7, 310.5 297.2, 313 296.0 C 315.4 294.7, 318.2 293.3, 319.2 292.8 C 321.5 291.7, 324 291.7, 324 293 C 324 293.5, 323.1 294, 322.2 294 C 321.2 294, 319.9 294.4, 319.4 294.9 C 318.9 295.4, 316.7 296.7, 314.5 298.0 C 304.3 303.5, 303 304.4, 303 305.1 C 303 305.6, 303.7 305.6, 304.7 305.0 C 306.5 304.1, 319.9 300, 321.2 300 C 323.0 300, 318.0 309.4, 314.8 312 C 314.5 312.2, 313.2 314.4, 312.0 316.9 C 310.7 319.3, 306.6 325.4, 302.8 330.4 C 296.5 338.8, 294.5 343, 297 343 C 297.5 343, 298 342.5, 298 341.9 C 298 341.3, 298.7 340.1, 299.6 339.2 C 301.1 337.7, 301.2 337.7, 300.5 340.0 C 300.0 341.3, 299.4 342.9, 299.0 343.5 C 298.6 344.0, 297.7 346.5, 297.0 349 C 296.3 351.4, 294.4 356.1, 292.8 359.4 C 291.2 362.6, 290.2 365.5, 290.4 365.8 C 291.0 366.3, 295.9 360.9, 295.9 359.7 C 295.9 359.3, 296.4 359, 297 359 C 297.5 359, 298 359.6, 298 360.5 C 298 361.3, 297.5 362, 297 362 C 296.4 362, 296 362.7, 296 363.5 C 296 364.4, 295.1 366.4, 294.0 367.9 C 292.2 370.5, 287.2 380.1, 283.4 388.5 C 282.4 390.7, 278.9 395.4, 275.8 398.9 C 268.0 407.6, 268.4 409.3, 276.7 402.3 C 280.4 399.2, 285.7 394.8, 288.4 392.6 C 291.1 390.3, 295.0 387.1, 296.9 385.4 C 298.9 383.7, 302.5 380.8, 305 378.9 C 307.4 377.0, 310.0 374.9, 310.8 374.2 C 311.5 373.5, 312.4 372.9, 312.8 372.9 C 313.1 372.9, 315.2 371.3, 317.4 369.4 C 319.6 367.5, 321.8 366, 322.2 366 C 322.7 366, 324.0 365.1, 325.2 364 C 326.4 362.9, 327.8 362, 328.3 362 C 329.6 362, 326.6 364.7, 322 367.9 C 313.1 374.1, 293.8 394, 296.7 394 C 297.2 394, 300.9 391.1, 305.0 387.6 C 314.4 379.6, 335.9 365.8, 338.9 366.0 C 339.7 366.0, 331.9 373, 331.1 373 C 330.7 373, 329.3 374.0, 327.9 375.2 C 326.6 376.4, 323.9 378.6, 322 380.1 C 317.0 383.7, 305.7 395.1, 306.3 395.7 C 306.8 396.1, 313.9 392, 317.5 389.2 C 319.8 387.4, 324.0 385.7, 324.6 386.3 C 325.0 386.6, 325.1 387.1, 324.9 387.2 C 321.0 389.9, 305.0 405.5, 302.7 408.9 C 301.0 411.4, 298.7 414.2, 297.6 415.2 C 296.5 416.2, 295.9 417.3, 296.3 417.6 C 296.7 418.0, 298.9 416.4, 301.3 414.1 C 306.7 408.8, 309.4 408.4, 306.9 413.1 C 305.2 416.3, 307.0 415.1, 315.1 407.8 C 329.8 394.4, 340.5 386.3, 350.4 381.1 C 355.7 378.3, 356 378.4, 356 382.4 C 356 385.2, 355.1 386.6, 350.8 390.6 C 334.7 405.6, 320 421.3, 320 423.4 C 320 423.7, 318.2 426.6, 316.1 429.7 C 312.0 435.8, 305.7 447, 306.4 447 C 306.6 447, 310.2 442.9, 314.4 438.0 C 321.5 429.7, 325 426.8, 325 428.9 C 325 429.4, 324.3 430.5, 323.5 431.3 C 321.6 433.2, 312 449.9, 312 451.3 C 312 452.7, 317.9 445.8, 317.9 444.4 C 317.9 443.8, 318.9 442.4, 320.0 441.2 C 321.1 440.0, 323.0 437.4, 324.3 435.5 C 327.5 430.9, 333.9 423.4, 342.1 414.6 C 345.7 410.6, 349.6 406.3, 350.8 405 C 353.9 401.1, 354.4 403.1, 353.1 413.2 C 352.0 421.6, 351.5 422.9, 346.9 429.6 C 344.2 433.6, 342 437.2, 342 437.5 C 342 437.8, 340.7 440.0, 339.1 442.3 C 335.8 447.0, 326 468.1, 326 470.4 C 326 471.2, 325.5 472.1, 325 472.5 C 323.8 473.2, 323.6 476, 324.7 476 C 325.1 476, 326.1 474.5, 326.9 472.7 C 327.6 470.9, 329.6 467.6, 331.1 465.3 C 332.7 463.0, 334.0 460.5, 334.0 459.8 C 334.0 457.9, 341.2 448.3, 341.6 449.5 C 341.8 450.1, 340.2 454.3, 338.0 458.8 C 335.8 463.3, 334 467.5, 334 468.1 C 334 468.7, 333.0 472.0, 331.9 475.3 C 328.5 485.4, 328.1 487.0, 328.8 486.5 C 329.5 486.1, 332.5 480.3, 335.3 474 C 340.4 462.4, 344.3 462.4, 339.8 474.0 C 338.7 477.0, 336.9 482.2, 335.8 485.5 C 334.8 488.8, 332.6 495.7, 330.9 500.8 C 329.2 505.9, 328.0 510.3, 328.3 510.6 C 328.7 511.1, 334 501.2, 334 499.9 C 334 499.5, 335.8 495.3, 338 490.6 C 340.2 485.9, 342 481.6, 342 481.1 C 342 480.5, 343.3 477.3, 345.1 473.8 C 348.3 467.2, 349.3 464.8, 350.4 461.6 C 351.5 458.0, 352.3 460.9, 351.2 464.7 C 350.6 466.8, 349.6 470.4, 348.9 472.9 C 348.3 475.3, 346.5 480.2, 344.9 483.7 C 343.3 487.1, 342 490.6, 342 491.3 C 342 492.5, 339.1 499.3, 336.9 503.2 C 335.7 505.4, 335.7 506, 336.9 506 C 337.4 506, 340.4 500.7, 343.6 494.2 C 350.6 480.1, 352.0 481.6, 346.4 497.2 C 344.4 502.8, 342.4 509.0, 342.0 511 C 341.1 515.0, 338.1 523.7, 336.8 526.2 C 335.4 528.9, 337.2 528.3, 339.4 525.4 C 341.4 522.8, 343.1 518.6, 347.8 504.7 C 351.0 495.4, 352 495.0, 352 503.1 C 352 506.5, 352.4 512.2, 353.0 515.9 C 353.5 519.5, 354.4 525.6, 355.0 529.5 C 355.6 533.3, 356.5 539.4, 357.1 542.9 C 358.9 553.1, 366.0 566.9, 364.5 557.3 C 361.5 537.4, 359.9 524.7, 360.5 524.1 C 361.2 523.4, 366 528.5, 366 529.9 C 366 530.5, 366.3 531, 366.8 531 C 367.3 531, 367.1 529.3, 366.4 527.2 C 364.1 520.5, 362.9 512.1, 364.5 514.4 C 365.3 515.5, 366 517.1, 366 518.1 C 366 519.0, 366.3 519.9, 366.7 520.1 C 367.1 520.3, 369.0 523.4, 370.8 527 C 376.1 537.1, 377.9 537.1, 374.3 527 C 373.5 524.5, 372.1 520.0, 371.3 517 C 370.6 513.9, 369.5 510.6, 369.0 509.5 C 365.5 501.6, 362.0 487.6, 364.0 489.6 C 364.5 490.1, 367.3 495.4, 370.4 501.5 C 373.4 507.5, 376.8 513.5, 377.9 514.7 C 379.0 515.9, 380 517.3, 380 517.9 C 380 518.5, 380.4 519, 381 519 C 381.5 519, 382 518.3, 382 517.5 C 382 516.7, 381.5 515.8, 381 515.5 C 380.4 515.1, 380 514.0, 380 513.1 C 380 512.1, 378.9 509.1, 377.6 506.4 C 374.1 499.1, 372.4 495.1, 370.0 488.5 C 368.8 485.2, 367.4 481.7, 366.9 480.7 C 365.8 478.6, 365.7 476.9, 366.7 477.0 C 367.1 477.0, 368.5 479.3, 369.9 482.2 C 371.2 485.1, 373.9 489.9, 375.9 493 C 377.9 496.0, 381.1 501.0, 383.0 504.2 C 386.0 509.4, 387.9 511.3, 388.0 509.2 C 388.0 508.2, 380.3 488.7, 377.2 482 C 375.9 478.9, 374.1 474.7, 373.2 472.5 C 372.4 470.3, 370.5 465.8, 369.0 462.5 C 367.5 459.2, 365.7 454.9, 365.0 453 C 363.5 448.8, 361.3 443.6, 359.3 439.5 C 357.7 436.2, 357.5 429, 359 429 C 359.5 429, 360 429.4, 360 430.0 C 360 430.5, 360.8 432.9, 361.9 435.2 C 362.9 437.5, 364.5 441.5, 365.3 444 C 366.8 448.6, 373.1 462.9, 375.1 466.5 C 375.8 467.6, 376.8 469.5, 377.5 470.7 C 378.8 473.2, 380.3 472.6, 379.1 470.1 C 378.6 469.2, 377.7 465.8, 377.0 462.5 C 376.3 459.2, 375.4 455.3, 374.9 454 C 374.5 452.6, 373.6 448.1, 373.0 444 C 372.3 439.8, 371.7 435.6, 371.5 434.5 C 371.3 433.4, 369.7 427.1, 368.0 420.5 C 365.9 412.5, 364.7 404.8, 364.3 397.7 C 363.0 376.2, 368.0 389.8, 370.3 414.5 C 371.2 424.2, 374.2 442.5, 375.1 443.4 C 375.5 443.9, 376 445.1, 376 446.0 C 376 446.9, 376.9 450.1, 378.1 453.1 C 379.2 456.0, 380.5 459.4, 380.9 460.5 C 381.4 461.6, 383.1 465.5, 384.8 469.2 C 386.6 473.0, 388 476.4, 388 476.8 C 388 478.2, 391.1 484.1, 391.6 483.6 C 391.9 483.3, 391.6 482.2, 391.0 481.1 C 390.4 480.0, 390 478.0, 390 476.7 C 390 475.4, 389.5 473.9, 389.1 473.4 C 388.6 472.9, 387.9 470.7, 387.7 468.5 C 387.4 466.3, 385.8 459.5, 384.1 453.5 C 382.4 447.4, 380.5 440.0, 380.0 437 C 379.4 433.9, 378.5 429.4, 377.9 427 C 375.6 416.6, 375.2 412.9, 376.5 414.0 C 377.1 414.5, 378.5 417.4, 379.4 420.5 C 381.8 428.2, 382.9 426.5, 381.4 417.2 C 379.6 405.7, 380.9 406.0, 386.9 418.2 C 392.2 429.1, 397.3 438.0, 402.0 445.1 C 404.2 448.3, 406 451.3, 406 451.9 C 406 452.5, 406.4 453, 407.0 453 C 407.5 453, 407.3 451.4, 406.4 449.2 C 405.5 447.1, 403.6 442.5, 402.2 439 C 400.8 435.4, 398.8 431.0, 397.8 429.2 C 396.8 427.4, 396 425.5, 396 424.9 C 396 424.4, 394.8 421.4, 393.3 418.2 C 385.7 401.3, 379.8 385.3, 380.1 382.8 C 380.4 380.8, 380.9 381.2, 383.1 385.5 C 387.9 394.5, 390.0 398.1, 396.1 407.3 C 404.7 420.2, 416 433.4, 416 430.6 C 416 430.2, 411.8 422.2, 397.9 395.2 C 394.6 388.9, 391.1 382.6, 390.0 381.0 C 388.9 379.4, 388 377.6, 388 377.0 C 388 376.4, 386.2 373.0, 384 369.3 C 379.8 362.5, 379.2 361, 381 361 C 381.5 361, 382 361.6, 382 362.4 C 382 363.1, 382.3 363.9, 382.8 364.1 C 383.2 364.3, 385.0 366.9, 386.6 370 C 388.3 373.0, 390.6 377.1, 391.8 379.2 C 393.0 381.3, 394.8 384.4, 395.8 386.2 C 401.0 395.4, 410.3 406.9, 411.4 405.8 C 411.8 405.4, 410.3 401.7, 408.0 397.5 C 402.7 387.5, 402.5 383.9, 407.4 389.7 C 411.4 394.3, 411.1 391.9, 406.3 381.4 C 403.8 375.9, 401.2 370.1, 400.5 368.5 C 399.8 366.8, 398.4 363.7, 397.4 361.5 C 396.5 359.3, 394.0 353.9, 391.9 349.5 C 388.2 341.6, 387.6 338.7, 390.4 342.5 C 391.2 343.6, 392.5 345.7, 393.2 347.2 C 393.9 348.7, 394.8 350, 395.2 350 C 395.6 350, 396 350.8, 396 351.9 C 396 352.9, 396.3 353.9, 396.7 354.1 C 397.6 354.5, 404 363.5, 404 364.3 C 404 365.1, 413.9 378.8, 416.7 381.9 C 417.9 383.3, 419 384.7, 419 385.0 C 419 385.4, 420.1 386.9, 421.4 388.5 C 422.8 390.1, 423.9 391.8, 423.9 392.2 C 423.9 392.6, 424.4 393, 425.0 393 C 425.6 393, 425.6 392.3, 425.0 391.2 C 424.5 390.2, 420.4 382.0, 415.9 373.0 C 411.4 363.9, 406.9 355.2, 405.8 353.7 C 401.5 347.6, 404.6 349.1, 414.9 357.8 C 417.7 360.2, 420 361.9, 420 361.6 C 420 360.6, 417.5 355.5, 415.4 352 C 411.0 344.7, 406.2 335.2, 403.6 328.5 C 402.1 324.6, 399.8 319.9, 398.6 318 C 395.5 313.1, 392.7 306.9, 393.3 306.3 C 394.2 305.4, 396 307.0, 396 308.6 C 396 309.4, 397.8 312.7, 400 316 C 402.2 319.2, 404 322.1, 404 322.5 C 404 322.8, 405.4 325.0, 407.2 327.3 C 409.0 329.6, 411.5 332.8, 412.7 334.5 C 414.0 336.1, 417.7 341.0, 421.0 345.4 C 424.4 349.8, 427.8 354.6, 428.7 356.2 C 430.3 358.8, 432 359.8, 432 358.2 C 432 357.7, 430.6 354.7, 429.0 351.4 C 427.3 348.1, 426.0 345.0, 426.0 344.4 C 425.9 343.2, 417.3 326.2, 410.6 314.1 C 408.0 309.5, 406 305.3, 406 304.9 C 406 304.4, 413.6 311.7, 422.9 321.0 C 443.2 341.3, 445.5 342.6, 437.8 329.5 C 432.3 320.2, 426.3 311.3, 422.5 306.9 C 420.8 304.9, 418.6 302.2, 417.6 300.9 C 416.5 299.5, 413.4 295.8, 410.7 292.6 C 404.2 285.1, 405.0 284.7, 412.5 291.6 C 415.8 294.6, 420.0 298.3, 422 299.8 C 423.9 301.2, 425.7 302.7, 426 302.9 C 429.4 306.4, 445.2 319.0, 445.6 318.6 C 446.2 318.0, 441.2 308.7, 436.9 302.4 C 431.7 294.9, 432.7 294.3, 441.1 300.0 C 444.4 302.3, 447.3 303.9, 447.5 303.7 C 447.9 303.3, 440.4 296.0, 429.3 285.9 C 425.4 282.3, 417.7 271.2, 418.7 270.6 C 419.2 270.3, 424.9 274.1, 431.5 278.9 C 438.1 283.8, 443.7 287.6, 443.9 287.3 C 444.2 287.1, 443.9 286.5, 443.3 286.1 C 442.8 285.8, 441.9 284.7, 441.4 283.8 C 440.9 282.9, 436.2 277.6, 431 272 C 421.0 261.3, 419.4 259.2, 420.4 258.2 C 421.6 256.9, 437.4 267.2, 444.8 274.0 C 447.9 276.9, 448.1 277.3, 446.9 280.1 C 445.2 284.1, 446.5 284.9, 449.5 281.7 C 451.7 279.4, 451.9 278.2, 451.9 271.7 C 451.8 265.5, 451.7 264.8, 450.7 267 C 450.1 268.3, 449.4 269.6, 449.3 269.8 C 448.6 270.9, 431.2 250.3, 428.0 244.6 C 423.7 236.9, 425.5 236.2, 432.8 242.5 C 435.7 244.9, 438.5 247, 438.9 247 C 439.3 247, 440.9 248.1, 442.5 249.4 C 444.1 250.8, 445.8 251.9, 446.3 251.9 C 446.8 251.9, 446.9 253.1, 446.5 254.6 C 445.8 257.4, 447.1 258.9, 450.2 258.9 C 451.8 258.9, 452 255.3, 452 197.2 C 452 151.3, 451.6 135.0, 450.8 134.2 C 449.9 133.3, 449.9 132.1, 450.8 129.2 C 451.6 126.8, 452 120.4, 451.8 111 L 451.5 96.5 447.2 96.1 C 444.9 96.0, 443 95.5, 443 95.1 C 443 94.0, 447.6 92, 450.0 92 C 451.8 92, 452 91.2, 452 84.0 C 452 76.3, 451.8 76.0, 449.2 74.6 L 446.5 73.1 449.2 72.4 C 451.6 71.8, 452 71.3, 452 67.8 C 452 63.6, 451.5 63.4, 446.2 64.9 C 442.9 65.8, 440.9 64.8, 443.2 63.3 C 443.9 62.8, 446.0 62.0, 448 61.4 C 451.3 60.4, 451.5 60.2, 451.8 55.2 C 452.0 51.0, 451.7 50, 450.5 50 C 449.6 50, 449 49.5, 449 49 C 449 48.4, 449.6 48, 450.5 48 C 451.3 48, 452 47.3, 452 46.5 C 452 45.2, 450.1 45, 441.0 45 L 430.1 45 429.1 51.7 C 428.5 55.4, 427.7 61.5, 427.4 65.3 C 427.0 69.0, 426.1 72.7, 425.3 73.4 C 424.6 74.2, 424 75.2, 424 75.7 C 424 77.8, 420.5 83.4, 420.2 81.9 C 420.0 81.0, 421.2 77.7, 422.9 74.5 C 427.1 66.6, 427.1 63.5, 423.0 67.4 C 421.4 68.9, 419.6 71.5, 418.9 73.1 C 418.2 74.7, 417.3 76, 416.8 76 C 416.3 76, 416.3 75.1, 416.9 74.0 C 417.5 73.0, 418 71.0, 418 69.7 C 418 68.4, 419.9 62.4, 422.4 56.4 L 426.8 45.5 413.4 45.2 C 400.3 44.9, 399.9 44.8, 399.9 42.7 C 399.8 41.5, 399.8 31.3, 399.9 20.2 L 400.1 -0 367.6 -0 C 347.0 -0, 334.8 0.3, 334.5 1 C 333.6 2.3, 330 2.3, 330 1 C 330 0.3, 318 0, 296 0 C 267.3 0, 262 0.2, 262 1.4 M 334 6.3 C 334 13.0, 344.9 20, 355.4 20 C 357.2 20, 361.2 20.8, 364.3 21.8 C 371.7 24.3, 371.7 22.8, 364.3 15.9 C 358.3 10.5, 351.7 7.0, 343.7 5.1 C 336.1 3.3, 334 3.5, 334 6.3 M 346 25.4 C 346 27.3, 356.4 38, 358.3 38 C 360.1 38, 367.8 41.5, 374.2 45.3 C 381.0 49.4, 381.1 47.9, 374.5 41.9 C 366.4 34.3, 361.2 30.5, 354.6 27.0 C 348.1 23.6, 346 23.2, 346 25.4 M 360 45.8 C 360 47.7, 362.7 49.9, 366.5 50.9 C 374.8 53.1, 374.9 51.6, 366.6 47.6 C 360.8 44.8, 360 44.5, 360 45.8 M 349 56.9 C 349 58.0, 351.5 60.6, 354.7 62.7 C 358.8 65.4, 360.1 60.4, 356.0 57.2 C 354.2 55.8, 349 55.5, 349 56.9 M 365 58.5 C 365 60.6, 367.5 62.9, 371.6 64.5 C 374.3 65.5, 379.1 68.0, 382.3 70.1 C 388.5 74.1, 389.4 74.3, 388.4 71.6 C 386.9 67.8, 365 55.6, 365 58.5 M 380.0 85.6 C 381.5 89.5, 382.7 90.8, 386.8 92.6 C 399.8 98.2, 399.3 98.2, 397.2 92.2 C 395.1 86.2, 395.2 86.5, 393.7 87.8 C 392.6 88.6, 391.2 88.3, 387.9 86.5 C 380.2 82.5, 378.8 82.3, 380.0 85.6 M 400.6 113.6 C 397.1 117.1, 405.0 137.5, 410.6 139.7 C 415.1 141.4, 413.4 133.0, 408.5 129.1 C 405.4 126.8, 405.3 126, 408 126 C 410.5 126, 410.5 124.9, 407.8 120.2 C 404.4 114.0, 402.2 112.0, 400.6 113.6 M 377.7 121.7 C 373.9 122.2, 374.2 124, 378.1 124 C 379.8 124, 383.0 124.5, 385.1 125.1 C 389.6 126.5, 390.6 125.9, 388.8 123.0 C 387.5 120.9, 384.7 120.6, 377.7 121.7 M 345 128.2 C 341.6 129.7, 340.9 130.4, 342.3 130.7 C 344.2 131.1, 352.6 128.4, 354.4 126.8 C 356.3 125.1, 349.4 126.1, 345 128.2 M 362.3 131.8 C 358.3 132.9, 350.6 137.2, 350.7 138.4 C 350.7 138.9, 353.3 140.6, 356.3 142.2 L 361.9 145.1 369.7 141.5 C 374.0 139.4, 378.2 137.4, 379.2 136.9 C 380.1 136.4, 381.9 135.9, 383.2 135.9 C 386.8 135.9, 388.4 134.5, 386.5 133.0 C 384.7 131.5, 366.9 130.6, 362.3 131.8 M 441.2 145.3 C 438.5 146.6, 438.3 148.5, 440.7 149.8 C 441.9 150.5, 442.5 152.1, 442.5 155.0 C 442.5 160.4, 446.2 162.6, 448.2 158.4 C 449.2 156.1, 449.0 155.6, 446.6 153.5 C 443.5 150.8, 443.1 149.4, 445.9 150.9 C 448.7 152.4, 449.2 152.2, 448.4 149.7 C 447.7 147.3, 445.0 143.9, 444.0 144.1 C 443.7 144.1, 442.4 144.7, 441.2 145.3 M 341.5 146.9 C 340.7 148.1, 338.6 164.0, 339.2 164.5 C 339.4 164.8, 342.7 162.0, 346.4 158.4 C 353.6 151.4, 353.6 151.3, 347.7 148.0 C 343.5 145.7, 342.3 145.5, 341.5 146.9 M 225.2 156.2 C 221.5 161.8, 220 166.5, 220 172.3 C 220 178.3, 221.2 178.2, 222.8 172.2 C 223.5 169.6, 224.5 166.6, 224.9 165.5 C 226.5 161.6, 227.2 159.4, 227.9 155.7 C 228.9 151.0, 228.7 151.0, 225.2 156.2 M 409.7 163.5 C 405.2 166.0, 405.8 167.1, 414.7 172.1 C 418.9 174.5, 420.1 173.8, 418.9 169.7 C 416.7 161.9, 414.9 160.7, 409.7 163.5 M 405.7 175.7 C 404.9 176.7, 403.9 178.6, 403.6 180.1 C 403.2 181.6, 402.7 183.5, 402.3 184.4 C 401.5 186.6, 404.1 186.4, 409 184 C 411.1 182.9, 413.7 182, 414.8 182 C 417.5 182, 419.6 179.2, 418.1 177.7 C 417.0 176.6, 410.3 174.0, 408.4 174.0 C 407.8 174.0, 406.6 174.7, 405.7 175.7 M 403.0 198.9 C 401.0 202.7, 402.2 210.3, 405.8 215.8 L 407.3 218.1 409.7 215.6 L 412.2 213.2 410.1 210.3 C 408.9 208.7, 407.4 205.1, 406.7 202.2 C 405.4 196.5, 404.6 195.9, 403.0 198.9 M 386.0 201.3 C 385.2 202.4, 385.1 204.4, 385.9 209.0 C 386.6 213.4, 386.6 218.4, 385.8 225.2 C 384.6 236.0, 385.2 237.8, 388.9 235.0 C 391.2 233.3, 391.2 233.0, 390.0 228.3 C 389.3 225.6, 388.8 218.2, 388.8 211.7 C 388.8 200.2, 388.4 198.5, 386.0 201.3 M 347.7 213.7 C 345.7 214.2, 345.4 217.6, 346.9 222.4 C 347.5 224.1, 348.9 228.9, 350.2 233.2 C 354.1 246.6, 354.7 243.0, 352.4 221.2 C 351.6 214.7, 350.6 213.0, 347.7 213.7 M 438.5 217.4 C 437.9 217.6, 435.4 218.3, 433 218.9 C 424.9 221.2, 425.4 220.9, 427.0 222.3 C 427.8 223.0, 431.6 224.6, 435.5 225.9 C 439.4 227.1, 443.7 229.0, 445.0 230.0 L 447.5 231.9 445.2 231.9 C 444.0 231.9, 443 232.4, 443 233 C 443 233.5, 443.6 234, 444.5 234 C 445.3 234, 446 234.4, 446 235 C 446 235.5, 446.8 236, 447.8 236 C 450.6 236, 450.0 229.8, 446.5 222.7 C 443.8 217.1, 442.4 216.2, 438.5 217.4 M 320.2 225.6 C 317.6 227.4, 317.4 231.4, 319.4 239.5 C 320.8 244.9, 321.0 244.7, 323.5 235 C 326.4 223.5, 326.4 223.9, 324.3 224.0 C 323.3 224.0, 321.4 224.8, 320.2 225.6 M 337.3 227.5 C 335.5 232.2, 341.2 261.9, 343.9 261.9 C 345.9 262.0, 352.0 259.6, 351.7 259.0 C 346.5 248.7, 343.5 241.4, 341.7 234.5 C 339.6 226.1, 338.5 224.4, 337.3 227.5 M 307.5 233.9 C 307.1 234.5, 307.5 237.3, 308.3 240.2 C 309.1 243.1, 310.1 247.9, 310.4 251 C 311.5 260.2, 316.2 284.4, 317.2 285.7 C 318.2 286.9, 323 287.5, 323 286.4 C 323 286.1, 321.8 281.7, 320.4 276.6 C 315.0 256.8, 312.1 245.2, 311.0 239.7 C 309.8 234.0, 308.6 232.0, 307.5 233.9 M 378.0 239.7 C 378.0 243.9, 378.4 247, 379 247 C 380.2 247, 380.2 235.9, 379 234 C 378.3 232.9, 378.0 234.7, 378.0 239.7 M 327.1 240.9 C 325.3 251.5, 325.6 274.9, 327.4 275.6 C 329.0 276.2, 337.7 273.2, 338.5 271.8 C 339.0 271.1, 338.3 269.2, 334.8 261.5 C 333.0 257.3, 330.0 243.3, 330.0 238.7 C 329.9 231.7, 328.4 232.9, 327.1 240.9 M 296.3 242.6 C 295.6 245.5, 296.6 281.0, 297.5 281.8 C 298.7 283.1, 299.1 279.8, 299.7 260.6 C 300.2 241.9, 300.1 240, 298.6 240 C 297.7 240, 296.7 241.1, 296.3 242.6 M 288.7 246.0 C 285.5 247.9, 284.8 250.5, 286.3 254.7 C 287.1 256.7, 288.3 260.4, 289.0 262.7 C 291.1 269.6, 292 267.6, 292 256 C 292 244.8, 291.8 244.2, 288.7 246.0 M 275.3 258.4 C 275.0 259.3, 276.2 261.7, 278.1 264.1 C 281.8 268.8, 282.8 267.9, 280.9 261.4 C 279.7 256.8, 276.6 255.2, 275.3 258.4 M 344.9 265.5 C 343.8 266.8, 343.9 267.3, 345.2 268.6 C 347.3 270.7, 354 268.5, 354 265.7 C 354 263.4, 346.8 263.2, 344.9 265.5 M 305.2 276.9 C 305.4 283.0, 305.8 285.4, 306.8 285.8 C 308.0 286.1, 308.1 284.9, 307.5 278.8 C 306.4 268.0, 304.9 266.7, 305.2 276.9 M 328 279.4 C 328 283.3, 331.7 285.7, 333.5 283 C 333.8 282.4, 335.1 282, 336.5 282 C 337.8 282, 339.1 281.5, 339.5 281 C 339.8 280.4, 340.9 280, 342.0 280 C 343.1 280, 344 279.5, 344 278.8 C 344 278.2, 343.3 278.0, 342.2 278.5 C 341.2 278.9, 339.2 279.4, 337.7 279.7 C 336.2 280.0, 334.7 280.6, 334.4 281.1 C 334.1 281.6, 333.1 281.9, 332.1 281.9 C 330.6 281.9, 330.6 281.8, 332.2 280.6 C 334.7 278.7, 334.4 278, 331 278 C 329.0 278, 328 278.5, 328 279.4 M 254.2 283.6 C 253.8 284.8, 254.8 286.3, 257.4 288.6 C 262.3 292.8, 262.9 292.2, 259.9 286.5 C 257.4 281.8, 255.3 280.8, 254.2 283.6 M 287 293.7 C 284.3 294.6, 282 297.2, 282 299.1 C 282 301.6, 283.0 301.4, 286.8 298.3 C 291.1 294.7, 291.2 292.1, 287 293.7 M 243.7 295.2 C 243.2 296.4, 244.2 303.9, 245.5 309.1 C 245.8 310.5, 249.9 315.4, 254.6 320.0 C 262.9 328.1, 266.0 329.8, 262.3 324.3 C 261.2 322.7, 259.9 320.3, 259.3 319 C 258.6 317.6, 256.8 313.5, 255.2 310 C 253.5 306.4, 251.7 301.8, 251.0 299.8 C 250.3 297.7, 248.9 295.8, 247.4 295.1 C 244.3 293.7, 244.3 293.7, 243.7 295.2 M 332 297.7 C 330.2 298.3, 326.0 303.0, 326.0 304.3 C 325.9 305.4, 331.7 301.9, 334.2 299.2 C 336.3 296.9, 335.4 296.3, 332 297.7 M 322.5 319.3 C 321.4 319.9, 319.7 321.2, 318.6 322.2 C 317.5 323.2, 316.1 324, 315.6 324 C 314.3 324, 308.8 329.9, 307.0 333.3 C 304.1 338.8, 307.1 336.9, 315.8 327.8 C 325.2 318.1, 325.7 317.4, 322.5 319.3 M 335.7 337.6 C 326.1 343.7, 323.6 344.0, 329.3 338.5 C 331.3 336.6, 333 334.7, 333 334.4 C 333 333.7, 328.4 336.9, 325.4 339.6 C 324.3 340.6, 321.9 342.6, 319.9 344.1 C 315.5 347.4, 304 359.1, 304 360.2 C 304 360.7, 302.6 363.1, 301 365.5 C 299.3 367.8, 298 370.3, 298 370.9 C 298 371.5, 297.5 372, 297 372 C 296.4 372, 296 372.6, 296 373.5 C 296 376.3, 297.9 374.9, 301.8 369.2 C 305.2 364.1, 310.2 359.0, 316.7 353.8 C 317.8 352.9, 325.0 348.0, 332.6 342.9 C 348.6 332.3, 349.0 331.9, 346.4 332.0 C 345.3 332.0, 340.5 334.5, 335.7 337.6 M 367.4 365.5 C 366.5 369.0, 367.7 377.9, 370.0 384.1 C 371.1 387.0, 372 390.6, 372 392.1 C 372 393.5, 372.7 395.3, 373.6 396.1 C 375.0 397.3, 375.1 397.1, 374.6 394.4 C 373.6 390.0, 370.8 372.1, 370.2 367.2 C 369.7 362.5, 368.3 361.6, 367.4 365.5 M 372 575.9 C 364.9 577.2, 362.5 578.2, 357.4 581.8 C 351.3 586.1, 352.1 586.6, 359.5 583.1 C 362.8 581.5, 368.6 579.7, 372.5 579.0 C 382.2 577.3, 405.7 578.0, 413.3 580.3 C 421.6 582.7, 439.3 592.0, 438.0 593.3 C 437.4 593.9, 436.6 593.9, 435.7 593.3 C 435.0 592.7, 430.4 590.7, 425.5 588.7 C 402.3 579.6, 388.7 579.5, 379.2 588.2 C 375.5 591.7, 376.5 592.1, 385.9 591.4 C 396.4 590.6, 397.8 591.1, 395.0 594.7 C 392.1 598.3, 393.2 598.6, 398.7 596.0 C 405.0 593, 406.9 592.2, 410.5 591.5 C 413.3 590.8, 413.4 590.9, 411.5 592.4 C 410.4 593.2, 408.9 593.9, 408.3 593.9 C 407.7 593.9, 405.4 594.8, 403.3 595.9 C 401.2 596.9, 397.9 598.5, 396 599.3 C 392.7 600.7, 389.2 604.6, 390.3 605.6 C 390.5 605.8, 392.3 605.2, 394.2 604.1 C 396.1 603.0, 400.1 601.9, 403.1 601.7 C 406.0 601.4, 410.3 600.6, 412.5 600.0 C 418.4 598.1, 425 597.5, 425 598.8 C 425 599.5, 424.6 600, 424.1 600 C 422.6 600, 411.4 610.7, 412.1 611.4 C 412.5 611.8, 414.7 611.1, 417.0 609.9 C 419.4 608.7, 422.1 608.0, 423.4 608.3 C 424.5 608.6, 426.8 608.2, 428.4 607.4 C 431.7 605.7, 433 605.6, 433 607 C 433 607.5, 432.5 608, 431.9 608 C 430.4 608, 424.0 612.3, 424.0 613.3 C 424.0 613.8, 425.2 613.9, 426.7 613.6 C 434.6 611.8, 442.2 611.0, 443.8 611.9 C 445.3 612.7, 445.3 612.9, 443.5 613.5 C 436.8 615.6, 427 622.5, 427 625.1 C 427 626.6, 428.6 626.0, 436.6 621.4 C 440.9 619.0, 446.1 616.7, 448.2 616.3 L 452 615.7 452 606.1 C 452 597.8, 451.7 596.3, 450.1 595.3 C 445.5 592.4, 427.1 583.0, 423.5 581.6 C 421.3 580.8, 418.6 579.8, 417.5 579.4 C 410.6 576.8, 404.8 575.9, 391.5 575.5 C 383.2 575.3, 374.4 575.4, 372 575.9 M 449 624.6 C 447.6 625.6, 445.8 627.0, 445.0 627.7 C 444.3 628.5, 442.5 629.6, 441.0 630.3 C 438.7 631.3, 439.1 631.5, 444.8 631.7 C 452.4 632.1, 452.2 632.3, 451.8 627.0 L 451.5 622.9 449 624.6 M 364.6 650.4 C 363.7 652.2, 362.9 655.5, 362.9 657.6 C 362.9 663.9, 362.0 664.6, 355.9 662.6 C 353.1 661.7, 350.3 661, 349.8 661 C 348.1 661, 341 664.4, 341 665.3 C 341 665.8, 341.7 665.8, 342.7 665.4 C 345.7 664.1, 350 663.7, 350 664.7 C 350 665.2, 348.8 666.7, 347.5 668 C 344.2 671.0, 344.3 672.1, 347.7 671.4 C 350.4 670.7, 350.4 670.8, 348.5 672.3 C 347.4 673.2, 345.9 673.9, 345.3 673.9 C 344.6 673.9, 344.0 674.3, 343.8 674.7 C 343.6 675.1, 341.8 676.7, 339.7 678.3 C 337.6 679.8, 336 681.7, 336 682.5 C 336 684.4, 335.8 684.5, 345.2 680.1 C 358.4 673.9, 360 673.4, 360 674.7 C 360 675.1, 358.5 676.1, 356.7 676.8 C 344.6 681.8, 341.4 684, 346 684 C 348.4 684, 348.5 684.7, 346.2 687.3 C 344.3 689.5, 345.4 689.1, 350.3 685.7 C 353.5 683.4, 354.7 684.0, 353.2 687.2 C 349.9 693.9, 351.3 695.9, 356.8 692.1 C 362.3 688.3, 380.5 683.0, 382.9 684.4 C 385.0 685.7, 383.8 686.8, 378.2 688.5 C 367.9 691.6, 352 700.7, 352 703.4 C 352 704.6, 354.9 703.8, 360.9 700.9 C 375.8 693.7, 392 690.3, 392 694.5 C 392 695.3, 391.3 696, 390.5 696 C 387.4 696, 370.2 704.6, 371.3 705.6 C 371.5 705.8, 374.3 705.3, 377.6 704.4 C 386.2 702.0, 395.2 700.8, 396.2 701.8 C 396.8 702.4, 395.8 703.0, 393.8 703.4 C 387.9 704.6, 378.8 708.1, 373.7 711.1 C 371.1 712.7, 368.3 714.0, 367.7 714.0 C 366.2 714.0, 361.0 717.9, 362.4 717.9 C 363.3 717.9, 364.6 717.6, 373.7 714.8 C 375.8 714.2, 377.8 713.2, 378.1 712.6 C 378.5 712.0, 379.2 711.8, 379.6 712.2 C 380.6 713.2, 377.3 716.6, 371.7 720.2 C 366.5 723.6, 365.9 724.9, 369 725.7 C 371.3 726.3, 371.5 727.5, 369.5 728.3 C 367.3 729.1, 367.6 732, 369.8 732 C 370.9 732, 372.0 732.7, 372.4 733.6 C 372.9 734.9, 374.0 735.1, 379.5 734.5 C 385.5 733.8, 387.8 734.7, 384.9 736.5 C 383.8 737.2, 379.8 745.1, 380.3 745.7 C 380.5 745.9, 384.0 746.1, 388.1 746.2 C 395.4 746.4, 396.1 746.3, 406.4 741.3 C 408.0 740.6, 409.6 740, 410.1 740 C 411.7 740, 411.0 741.7, 409.2 742.3 C 402.7 744.4, 389.0 755.8, 391.8 756.7 C 392.5 757.0, 394.3 756.1, 395.8 754.7 C 401.6 749.4, 406.8 747.0, 415.8 745.5 C 418.7 745.0, 419.0 745.2, 417.9 746.5 C 417.3 747.3, 416.3 748, 415.7 748 C 414.6 748, 405.7 755.1, 406.2 755.6 C 406.4 755.7, 409.9 754.6, 414.0 753.0 C 422.0 749.8, 424 749.4, 424 750.9 C 424 751.8, 417.6 756.3, 412.7 758.9 C 411.2 759.6, 408.5 761.5, 406.7 763.1 L 403.5 765.9 407.2 765.9 C 409.3 765.9, 411.8 765.5, 412.7 765.0 C 414.7 764.0, 424.3 760.4, 427.7 759.5 C 431.3 758.4, 430.8 763.3, 427.2 764.9 C 422.5 766.8, 413.5 773.5, 413.1 775.3 C 412.9 776.5, 413.5 777, 415.8 777 C 417.5 777, 419.1 777.4, 419.5 778.0 C 420.1 779.1, 412.2 787.2, 410.9 786.7 C 410.5 786.6, 405.1 781.6, 398.8 775.6 C 371.1 749.1, 355.8 743.4, 312 743.5 C 289.1 743.5, 277.3 745.4, 255 752.7 C 241.4 757.1, 223 767.6, 223 770.9 C 223 772.5, 224.9 772.1, 228.1 769.8 C 232.5 766.7, 232.8 768.5, 228.6 772.8 C 226.6 774.8, 225 776.9, 225 777.2 C 225 778.2, 227.7 778.1, 228.1 777.1 C 228.9 775.2, 238 769.9, 238 771.3 C 238 772.2, 237.5 773.1, 237 773.5 C 235.6 774.3, 235.7 778, 237.1 778 C 238.3 778, 246 769.9, 246 768.7 C 246 768.3, 246.4 768, 247 768 C 248.1 768, 248.3 771.3, 247.3 772.3 C 246.5 773.0, 244.0 779.9, 244.0 781.2 C 243.9 783.0, 245.6 781.7, 246.8 778.9 C 247.8 776.6, 248.5 776.1, 249.4 776.9 C 250.9 778.1, 252.0 776.7, 256.3 768.2 C 260.8 759.3, 261.9 761.8, 258.3 772.7 C 255.4 781.7, 256.9 780.9, 262.4 770.5 C 266.6 762.5, 268.6 760, 270.7 760 C 271.9 760, 272.0 760.9, 271.5 764.4 C 270.9 768.5, 272.0 771.3, 273.4 769.0 C 274.9 766.7, 276 768.2, 276 772.5 C 276 774.9, 276.4 777, 277 777 C 277.5 777, 278 778.3, 278 780.0 C 278 781.8, 278.4 782.8, 279 782.5 C 279.5 782.1, 280 780.8, 280 779.5 C 280 778.1, 280.4 776.8, 281 776.5 C 281.5 776.1, 282 774.7, 282 773.4 C 282 772.0, 282.3 771, 282.7 771 C 283.2 771, 283.2 773.8, 282.9 777.2 C 282.2 783.7, 282.5 785.6, 283.5 782.3 C 284.7 778.8, 286.4 775.5, 289.3 771 C 293.1 765.2, 292.8 765.5, 293.7 766.3 C 294.1 766.7, 293.8 767.4, 293.1 767.9 C 292.3 768.3, 292.0 769.5, 292.2 770.6 C 292.6 772.4, 292.7 772.4, 293.5 770.5 C 294.0 769.4, 294.7 768.0, 295.2 767.5 C 295.6 766.9, 297.8 763.6, 299.9 760.2 C 303.7 754.3, 306 752.4, 306 755.2 C 306 755.9, 304.2 760.1, 302.1 764.5 C 296.5 776.2, 291.6 788.9, 292.4 789.7 C 292.8 790.1, 293.5 789.8, 294.0 788.9 C 298.6 781.7, 301.1 777.2, 301.6 775.7 C 301.9 774.7, 302.5 774, 302.8 774 C 303.2 774, 304.1 772.6, 304.8 771 C 305.5 769.3, 306.5 768, 307.0 768 C 308.3 768, 308.2 770.7, 306.9 771.5 C 306.4 771.8, 306.2 773.2, 306.6 774.7 C 307.1 776.6, 306.9 777.1, 306.0 776.5 C 305.1 775.9, 304.9 776.3, 305.4 777.8 C 305.8 778.9, 305.6 780.6, 305.1 781.6 C 298.5 794.0, 299.4 798.6, 306.1 787 C 309.3 781.5, 312.8 777.4, 313.5 778.2 C 313.8 778.5, 312.2 782.4, 310 787 C 307.7 791.5, 306.0 795.3, 306.2 795.6 C 306.5 795.8, 310.6 792.2, 315.3 787.5 C 323.3 779.6, 337.3 770, 340.8 770 C 341.5 770, 340.2 772.2, 337.8 775.0 C 331.2 782.7, 327.0 788.9, 324.3 794.8 C 321.6 800.9, 321.9 802.6, 325.0 798.6 C 331.8 789.9, 340.0 783.6, 350.3 779.0 C 363.4 773.1, 366.2 774.6, 355.4 781.7 C 346.4 787.6, 347.3 789.4, 357.7 786.4 C 361.4 785.3, 360.3 787.7, 355.8 790.7 C 350.6 794.1, 352.5 794.8, 362.4 793.0 C 369.0 791.9, 390.7 791.5, 393.4 792.6 C 396.7 793.8, 394.6 794.8, 387.2 795.4 C 382.9 795.8, 377.4 796.5, 375 797.1 C 359.8 800.6, 358.5 801.7, 369.1 802.2 C 376.6 802.5, 379.5 804.3, 374.3 805.5 C 370.9 806.2, 366.5 807.7, 362.4 809.5 C 360.8 810.2, 358.1 811.3, 356.5 811.9 C 351.7 813.7, 354.5 814.3, 361.7 812.9 C 374.9 810.4, 408 811.9, 408 815.0 C 408 815.4, 404.7 815.9, 400.7 816.2 C 394.3 816.6, 387.5 818.3, 381.5 820.9 C 380.4 821.4, 378.0 822.4, 376.2 823.1 C 370.0 825.6, 372.7 826.3, 385.7 825.4 C 411.6 823.7, 425.1 825.3, 413.7 828.7 C 408.4 830.3, 399.0 833.8, 396.7 835.0 C 395.8 835.5, 394.4 836.0, 393.7 836.0 C 391.9 836.0, 380.6 844.3, 380.8 845.4 C 380.9 845.9, 386.8 846.2, 394.0 846.0 C 408.7 845.8, 409.5 846.3, 402.0 851.2 C 399.2 853.0, 397.0 854.7, 397.0 855.0 C 396.9 856.1, 408.6 858, 415.2 858 C 421.4 858, 423.8 858.5, 429.7 861.2 C 435.1 863.8, 428.0 865.0, 419.5 863.0 C 417.0 862.4, 412.0 862.4, 406.3 863.0 L 397.2 863.9 388.8 860.1 C 380.8 856.4, 376.7 855.3, 361.9 853.0 C 353.3 851.6, 338.5 851.7, 331.8 853.0 C 328.8 853.6, 324.0 854.6, 321 855.2 C 316.1 856.1, 311.8 857.2, 301.5 859.9 C 298.2 860.8, 295.6 861.7, 292.5 863 C 286.5 865.4, 270.4 871.6, 263.5 874.1 C 259.1 875.7, 253.0 878.6, 250.1 880.6 C 241.0 886.6, 209.4 919, 212.6 919 C 214.0 919, 223.0 912.5, 229.5 907.0 C 238.2 899.4, 241.3 898.2, 237.4 903.7 C 234.9 907.3, 237.1 906.2, 242 901.4 C 246.8 896.7, 248 896.1, 248 898.5 C 248 900.8, 249.4 900.2, 251.1 897.2 C 254.5 891.6, 258.9 887.6, 270.5 879.7 C 276.3 875.8, 278.3 876.8, 273.9 881.5 C 271.4 884.2, 264.7 897.1, 265.5 897.8 C 265.8 898.1, 267.2 896.8, 268.7 894.9 C 275.3 886.3, 284.0 879.3, 280.9 885.0 C 279.1 888.3, 280.4 888.3, 284.0 884.9 C 287.9 881.2, 289.1 882.5, 286 887 C 281.9 892.7, 284.5 892.1, 289.7 886.2 C 294.0 881.2, 300.5 876.7, 298.3 880.2 C 298.0 880.7, 298.3 881.5, 299.0 882.0 C 300.1 882.7, 300.0 884.0, 298.2 889.0 C 296.9 892.5, 296.1 895.4, 296.3 895.7 C 297.2 896.6, 301.9 892.6, 307.1 886.7 C 316.2 876.1, 317.7 875.3, 313.8 883.1 C 311.0 888.8, 310.1 891.0, 309.7 893.4 C 309.5 895.0, 307.4 895.9, 298.4 898.1 C 292.4 899.6, 284.0 901.7, 279.7 902.9 C 275.4 904.0, 268.7 905.8, 264.7 906.8 C 255.2 909.3, 237.0 915.4, 232.2 917.7 C 227.0 920.3, 220.6 924.0, 220 924.8 C 219.7 925.2, 217.7 926.8, 215.5 928.4 C 208.0 933.8, 178.5 964.3, 173.3 972 C 168.5 979.1, 165.7 983.9, 157.6 999.2 C 152.3 1009.2, 155.5 1007.9, 167 995.4 C 172.2 989.7, 176.8 985.0, 177.2 985.0 C 177.6 985.0, 177.0 987.0, 175.9 989.5 C 171.9 998.9, 174.7 997.1, 179.9 987 C 182.8 981.2, 186.5 977.1, 187.6 978.3 C 188.0 978.7, 187.7 980.0, 187.0 981.4 C 185.2 984.6, 186.4 989.7, 188.5 987.9 C 189.3 987.3, 190 986.1, 190 985.4 C 190 983.7, 193.5 977.2, 195.9 974.5 C 196.9 973.4, 199.5 969.6, 201.8 966.2 C 206.5 959.2, 208.5 958.2, 207.6 963.2 C 205.0 976.7, 204.7 988.7, 206.9 986.3 C 207.4 985.9, 209.0 980.5, 210.5 974.5 C 214.6 957.7, 220.7 942, 223.1 942 C 224.2 942, 224.2 944.7, 223.1 945.4 C 222.6 945.7, 221.9 947.2, 221.7 948.7 C 221.4 950.2, 220.2 955.1, 219.1 959.5 C 216.5 969.3, 215.3 980, 216.7 980 C 217.8 980, 222 971.8, 222 969.6 C 222 968.8, 222.7 966.5, 223.7 964.3 C 225.1 961.0, 225.4 960.8, 225.7 962.6 C 225.9 963.9, 225.6 965.7, 225.0 966.8 C 223.8 969.2, 223.6 976, 224.8 976 C 225.9 976, 229.3 969.4, 230.9 964.2 C 232.6 958.8, 234.2 958.7, 233.3 964.1 C 232.5 969.5, 234.2 968.6, 237.1 962.1 C 238.2 959.6, 240.2 955.1, 241.6 952.2 C 242.9 949.3, 244 946.7, 244 946.4 C 244 946.2, 245.3 943.1, 247 939.5 C 248.6 935.8, 250 932.5, 250 931.9 C 250 931.4, 250.5 931, 251.1 931 C 252.2 931, 252.0 932.6, 250.0 941 C 246.1 956.7, 245.5 962.2, 247.0 968.5 C 248.5 974.7, 249.5 975.4, 250.4 970.7 C 251.3 966.5, 253.9 957.0, 255.0 954.5 C 255.4 953.4, 256.4 950.8, 257.1 948.7 C 258.8 943.7, 260 944.0, 260 949.5 C 260 951.9, 260.4 954, 261 954 C 261.5 954, 262 953.1, 262 952.0 C 262 948.7, 264.3 940, 265.1 940 C 265.6 940, 266 943.6, 266 948.0 C 266 953.1, 266.3 955.8, 267 955.5 C 267.5 955.1, 268 953.7, 268 952.4 C 268 949.5, 269.5 949.2, 270.2 952 C 271.4 956.2, 274.6 952.5, 282.8 937.6 C 286.2 931.3, 291.5 923.3, 293.7 921.1 C 295.8 918.9, 296.4 920.6, 294.7 924.2 C 284.1 946.5, 282.0 962.3, 292.3 941.5 C 296.9 932.3, 299.2 929.1, 303.7 924.9 C 309.4 919.7, 311.6 919.5, 308.3 924.5 C 305.0 929.6, 302.8 933.6, 298.4 943 C 295.9 948.2, 293.4 953.3, 292.8 954.3 C 292.3 955.3, 292.1 956.4, 292.5 956.8 C 293.1 957.5, 293.8 956.8, 304 944.9 C 316.5 930.2, 321.6 925.1, 327.1 921.7 C 330.9 919.4, 330.9 921.4, 327.1 927.2 C 321.5 935.4, 314.6 952.9, 319.5 946.6 C 320.2 945.5, 323.4 940.0, 326.5 934.4 C 332.3 923.9, 336 919.1, 336 922.2 C 336 923.0, 334.7 926.2, 333.1 929.2 C 331.5 932.1, 330.0 935.7, 329.7 937.0 C 329.4 938.4, 328.9 940.2, 328.5 941.2 C 328.0 942.3, 328.2 943, 328.8 943 C 329.5 943, 330 942.5, 330 941.9 C 330 939.7, 340.6 925.7, 348.2 918 C 357.8 908.2, 360.6 907.8, 353.1 917.3 C 348.7 923.0, 336 941.4, 336 942.2 C 336 942.4, 338.8 942.4, 342.2 942.2 C 352.0 941.6, 353.5 943.4, 347.8 948.8 C 342.8 953.6, 344.8 953.3, 352.9 947.9 C 356.0 945.9, 358.9 944.0, 359.5 943.7 C 360.3 943.2, 360.5 945.2, 360.2 950.5 C 359.6 958.6, 360.1 959.2, 364.6 956.2 C 367.2 954.6, 367.2 954.6, 366.5 957.0 C 366.0 958.3, 364.9 961.3, 364.0 963.5 C 360.5 971.5, 360 973.1, 360 975.5 C 360 979.3, 361.0 978.5, 367.4 969.9 C 370.7 965.5, 373.9 962, 374.5 962 C 376.4 962, 378.2 964.7, 377.3 966.1 C 376.9 966.8, 376.5 968.1, 376.4 968.9 C 376.2 969.8, 375.7 973.4, 375.2 977 C 373.8 985.8, 374.6 986.2, 378.4 978.8 C 384.6 966.5, 387.1 964.5, 386.2 972.4 C 385.5 978.4, 387.9 979.6, 391.6 975.1 C 395.1 971.0, 395.8 971.1, 396.1 976.2 C 396.4 979.3, 396.9 980.5, 398.2 980.8 C 399.8 981.1, 400 980.1, 400 970.5 L 400 960 421 960 C 432.5 960, 442 959.6, 441.9 959.2 C 441.9 958.8, 437.0 952.7, 430.9 945.7 C 424.9 938.7, 420 932.5, 420 932.0 C 420 931.4, 419.2 931, 418.2 931 C 417.2 931, 414.0 929.2, 411.1 927.0 C 406.3 923.3, 384.5 910, 383.4 910 C 383.1 910, 380.8 909.0, 378.2 907.9 C 375.6 906.7, 372.6 905.4, 371.5 904.9 C 368.7 903.8, 357.5 900.5, 352 899.1 C 340.1 896.3, 337.5 895.9, 329.8 895.9 C 325.2 895.9, 320.5 895.7, 319.3 895.3 L 317.1 894.7 319.8 889.7 C 322.6 884.3, 330.4 875.1, 331.3 876.0 C 331.6 876.3, 330.9 879.1, 329.8 882.2 C 327.7 887.7, 327.8 891, 330.0 891 C 330.6 891, 330.8 890.5, 330.5 890.0 C 330.1 889.4, 330.6 887.8, 331.6 886.4 C 333.1 884.1, 333.4 884.0, 334.8 885.4 C 336.1 886.7, 336.7 886.5, 340.4 883.2 C 347.7 876.7, 350.3 874.8, 356.5 871.9 C 368.7 866.1, 371.9 867.2, 362.2 873.8 C 357.2 877.2, 350.8 883.0, 352.0 882.9 C 352.3 882.9, 355.2 881.8, 358.5 880.5 C 363.9 878.2, 374 877.0, 374 878.5 C 374 878.9, 372.7 880.3, 371.2 881.8 C 367.7 885.1, 365 889.0, 365 890.7 C 365 891.4, 366.9 890.1, 369.2 887.9 C 375.1 882.2, 381.4 878, 383.9 878 C 387.4 878, 386.2 879.4, 377.1 886.3 C 364.3 895.9, 363.6 898.7, 376.2 889.8 C 377.7 888.7, 381.8 887.4, 385.2 886.9 C 388.6 886.4, 393.8 885.1, 396.7 884.0 C 403.3 881.4, 404.3 883.7, 398.0 886.9 C 393.6 889.2, 387 894.7, 387 896.0 C 387 896.5, 390.3 896.6, 394.5 896.3 C 398.6 895.9, 402 896.0, 402 896.4 C 402 896.8, 400.2 899.2, 398 901.7 C 391.0 909.6, 392.3 910.9, 404.7 908.4 C 408.5 907.6, 408.8 908.4, 405.8 911.6 C 402.2 915.4, 408.5 914.0, 418.2 908.9 C 421.1 907.3, 421.1 907.8, 418.5 912.3 C 415.5 917.4, 415.4 918.8, 417.7 920.5 C 418.9 921.4, 419.8 921.4, 421.1 920.6 C 422.3 919.9, 423.2 919.9, 424.2 920.8 C 425.1 921.5, 426.9 921.7, 428.8 921.3 C 430.6 921.0, 432 921.1, 432 921.7 C 432 923.1, 427.8 926.7, 424.7 927.9 C 421.3 929.1, 421.2 930.6, 424.4 931.2 C 427.2 931.7, 430 930.4, 430 928.5 C 430 925.6, 432.2 925.9, 434.9 929.1 L 437.8 932.5 440.2 930.2 C 442.2 928.3, 443.3 928.0, 447.3 928.6 L 452 929.2 452 879.6 L 452 830.0 449.1 830.6 C 445.4 831.3, 441.1 826.6, 423.5 803.0 C 417.0 794.4, 417.1 794.5, 421 793.1 C 422.6 792.5, 425.4 791.4, 427.2 790.7 C 429.1 790.0, 434.9 789.5, 441.2 789.5 L 452 789.6 452 780.8 L 452 772.0 447 771.4 C 444.2 771.0, 442 770.4, 442 770.0 C 442 768.3, 445.9 766, 448.8 766 C 451.9 766, 452 765.9, 452 761.1 L 452 756.3 447.2 754.6 C 439.8 751.9, 439.1 751.3, 441.5 749.5 C 444.0 747.6, 447.4 747.5, 449 749.5 C 450.8 751.6, 452 751.3, 452 748.5 C 452 745.7, 445.4 739.5, 438.5 736.0 C 432.9 733.1, 433.1 731.3, 439.0 731.7 C 442.8 732.0, 448.9 735.0, 449.8 737.2 C 450.6 739.1, 452 737.6, 452 734.7 C 452 731.4, 451.9 731.4, 443.8 729.5 L 435.7 727.6 436.4 719.3 C 437.4 707.3, 436.7 704.9, 432.4 705.7 C 428.2 706.3, 428.2 706.7, 432.4 698.3 C 436.6 690.0, 436.2 689.3, 430.4 695.0 C 427.7 697.6, 426 698.8, 426 697.9 C 426 697.0, 426.4 695.9, 427.1 695.2 C 428.6 693.7, 429.2 683.2, 427.9 682.4 C 426.4 681.5, 420.6 687.1, 415.8 694.3 C 413.2 698.1, 411.2 700.0, 410.1 699.7 C 407.1 699.2, 407.7 695.9, 412.9 685.5 C 418.1 674.9, 418.9 672, 416.6 672 C 413.9 672, 406 684.8, 406 689.1 C 406 691.8, 403.1 692.6, 401.4 690.3 C 399.8 688.1, 399.5 686, 401 686 C 401.5 686, 402 686.6, 402 687.5 C 402 688.3, 402.4 689, 403 689 C 403.5 689, 404 688.1, 404 687 C 404 685.9, 404.4 685, 405 685 C 405.5 685, 406.0 684.2, 406.0 683.2 C 406.0 682.2, 407.8 679.2, 410 676.5 C 414.8 670.4, 415.3 667.9, 411.2 670.5 C 407.6 672.8, 401.6 679.1, 399.3 682.9 C 397.4 686.2, 396.5 686.6, 395.4 684.8 C 394.9 684.1, 394.5 684.1, 393.9 685.1 C 393.3 686.0, 392.7 685.6, 391.9 683.4 C 390.4 679.6, 391.4 670.5, 394.2 661.7 C 396.2 655.4, 396.0 651.4, 393.8 655.2 C 393.3 656.2, 392 657, 390.8 657 C 388.6 657, 386 662.1, 386 666.4 C 386 667.8, 385.6 669, 385.1 669 C 383.7 669, 382 661.5, 382 655.5 C 382 650.8, 381.7 649.9, 380.3 650.1 C 377.9 650.6, 374.7 655.3, 374.0 659.6 C 372.7 667.6, 368.7 661.5, 368.5 651.2 C 368.4 646.0, 366.8 645.7, 364.6 650.4 M 446.7 715.6 C 446.3 715.9, 446.7 717.5, 447.5 719.0 C 448.3 720.6, 449 722.7, 449 723.8 C 449 724.8, 449.6 726.3, 450.5 727 C 453.1 729.2, 452.5 719.2, 449.8 716.8 C 447.3 714.7, 447.5 714.7, 446.7 715.6 M 390.2 717.3 C 382.5 718.8, 383.8 720.2, 392.2 719.4 C 401.4 718.6, 402.9 718.2, 400.9 716.9 C 399.2 715.8, 397.3 715.9, 390.2 717.3 M 443.6 797.9 C 431.3 802.8, 433.8 805.2, 448.3 802.3 C 450.8 801.8, 451.1 802.0, 450.5 803.8 C 450.1 805.1, 450.3 806, 450.9 806 C 451.5 806, 452 803.8, 452 801 C 452 795.2, 451.3 794.9, 443.6 797.9 M 445.5 813.9 C 444.8 815.0, 445.5 815.5, 449.2 816.3 C 451.5 816.9, 452 816.7, 452 815.0 C 452 812.8, 446.7 811.9, 445.5 813.9 M 411.0 870.7 C 411.0 871.6, 423.6 880, 425.0 880 C 426.5 880, 426.1 879.0, 423.5 876.4 C 419.2 872.1, 410.9 868.3, 411.0 870.7 M 293.1 887.4 C 291.2 890.4, 289.9 893.4, 290.1 894.0 C 290.5 895.2, 296 887.7, 296 886.0 C 296 885.4, 296.4 885, 297 885 C 297.5 885, 298 884.3, 298 883.5 C 298 880.7, 296.4 881.9, 293.1 887.4 M 393.4 942.8 C 392.9 943.3, 390.1 945.0, 387.2 946.5 C 384.3 947.9, 382 949.8, 382 950.5 C 382 951.3, 384.8 950.4, 390 947.7 C 394.4 945.5, 398 943.3, 398 942.8 C 398 941.7, 394.6 941.7, 393.4 942.8"/></svg>